<mxGraphModel dx="3680" dy="1874" grid="1" gridSize="10" guides="1" tooltips="1" connect="1" arrows="1" fold="1" page="1" pageScale="1" pageWidth="827" pageHeight="1169" math="0" shadow="0"><root><mxCell id="0"/><mxCell id="1" parent="0"/><mxCell id="QiIq8ysfyUFUvmuUfaci-122" style="edgeStyle=orthogonalEdgeStyle;rounded=0;orthogonalLoop=1;jettySize=auto;html=1;exitX=0.5;exitY=1;exitDx=0;exitDy=0;entryX=0.5;entryY=0;entryDx=0;entryDy=0;sketch=1;curveFitting=1;jiggle=2;curved=1;" parent="1" source="QiIq8ysfyUFUvmuUfaci-130" target="QiIq8ysfyUFUvmuUfaci-141" edge="1"><mxGeometry relative="1" as="geometry"/></mxCell><mxCell id="QiIq8ysfyUFUvmuUfaci-123" style="edgeStyle=orthogonalEdgeStyle;shape=connector;curved=1;rounded=0;sketch=1;jiggle=2;curveFitting=1;orthogonalLoop=1;jettySize=auto;html=1;exitX=0.5;exitY=1;exitDx=0;exitDy=0;labelBackgroundColor=default;strokeColor=default;fontFamily=Helvetica;fontSize=11;fontColor=default;endArrow=classic;" parent="1" source="QiIq8ysfyUFUvmuUfaci-130" target="QiIq8ysfyUFUvmuUfaci-144" edge="1"><mxGeometry relative="1" as="geometry"/></mxCell><mxCell id="QiIq8ysfyUFUvmuUfaci-124" style="edgeStyle=orthogonalEdgeStyle;shape=connector;curved=1;rounded=0;sketch=1;jiggle=2;curveFitting=1;orthogonalLoop=1;jettySize=auto;html=1;exitX=0.5;exitY=1;exitDx=0;exitDy=0;labelBackgroundColor=default;strokeColor=default;fontFamily=Helvetica;fontSize=11;fontColor=default;endArrow=classic;" parent="1" source="QiIq8ysfyUFUvmuUfaci-130" target="QiIq8ysfyUFUvmuUfaci-153" edge="1"><mxGeometry relative="1" as="geometry"/></mxCell><mxCell id="QiIq8ysfyUFUvmuUfaci-125" style="edgeStyle=orthogonalEdgeStyle;shape=connector;curved=1;rounded=0;sketch=1;jiggle=2;curveFitting=1;orthogonalLoop=1;jettySize=auto;html=1;exitX=0.5;exitY=1;exitDx=0;exitDy=0;labelBackgroundColor=default;strokeColor=default;fontFamily=Helvetica;fontSize=11;fontColor=default;endArrow=classic;" parent="1" source="QiIq8ysfyUFUvmuUfaci-130" target="QiIq8ysfyUFUvmuUfaci-160" edge="1"><mxGeometry relative="1" as="geometry"/></mxCell><mxCell id="QiIq8ysfyUFUvmuUfaci-126" style="edgeStyle=orthogonalEdgeStyle;shape=connector;curved=1;rounded=0;sketch=1;jiggle=2;curveFitting=1;orthogonalLoop=1;jettySize=auto;html=1;exitX=0.5;exitY=1;exitDx=0;exitDy=0;entryX=0.5;entryY=0;entryDx=0;entryDy=0;labelBackgroundColor=default;strokeColor=default;fontFamily=Helvetica;fontSize=11;fontColor=default;endArrow=classic;" parent="1" source="QiIq8ysfyUFUvmuUfaci-130" target="QiIq8ysfyUFUvmuUfaci-192" edge="1"><mxGeometry relative="1" as="geometry"/></mxCell><mxCell id="QiIq8ysfyUFUvmuUfaci-127" style="edgeStyle=orthogonalEdgeStyle;shape=connector;curved=1;rounded=0;sketch=1;jiggle=2;curveFitting=1;orthogonalLoop=1;jettySize=auto;html=1;exitX=0.5;exitY=1;exitDx=0;exitDy=0;labelBackgroundColor=default;strokeColor=default;fontFamily=Helvetica;fontSize=11;fontColor=default;endArrow=classic;" parent="1" source="QiIq8ysfyUFUvmuUfaci-130" target="QiIq8ysfyUFUvmuUfaci-199" edge="1"><mxGeometry relative="1" as="geometry"/></mxCell><mxCell id="QiIq8ysfyUFUvmuUfaci-128" style="edgeStyle=orthogonalEdgeStyle;shape=connector;curved=1;rounded=0;sketch=1;jiggle=2;curveFitting=1;orthogonalLoop=1;jettySize=auto;html=1;exitX=0.5;exitY=1;exitDx=0;exitDy=0;entryX=0.5;entryY=0;entryDx=0;entryDy=0;labelBackgroundColor=default;strokeColor=default;fontFamily=Pangolin;fontSource=https%3A%2F%2Ffonts.googleapis.com%2Fcss%3Ffamily%3DPangolin;fontSize=12;fontColor=default;endArrow=classic;" parent="1" source="QiIq8ysfyUFUvmuUfaci-130" target="QiIq8ysfyUFUvmuUfaci-203" edge="1"><mxGeometry relative="1" as="geometry"/></mxCell><mxCell id="QiIq8ysfyUFUvmuUfaci-129" style="edgeStyle=orthogonalEdgeStyle;shape=connector;curved=1;rounded=0;sketch=1;jiggle=2;curveFitting=1;orthogonalLoop=1;jettySize=auto;html=1;exitX=0.5;exitY=1;exitDx=0;exitDy=0;labelBackgroundColor=default;strokeColor=default;fontFamily=Pangolin;fontSource=https%3A%2F%2Ffonts.googleapis.com%2Fcss%3Ffamily%3DPangolin;fontSize=12;fontColor=default;endArrow=classic;" parent="1" source="QiIq8ysfyUFUvmuUfaci-130" target="QiIq8ysfyUFUvmuUfaci-251" edge="1"><mxGeometry relative="1" as="geometry"/></mxCell><mxCell id="QiIq8ysfyUFUvmuUfaci-130" value="Change" style="rounded=1;whiteSpace=wrap;html=1;sketch=1;curveFitting=1;jiggle=2;fontFamily=Pangolin;fontSource=https%3A%2F%2Ffonts.googleapis.com%2Fcss%3Ffamily%3DPangolin;" parent="1" vertex="1"><mxGeometry x="-1370" y="-979" width="120" height="60" as="geometry"/></mxCell><mxCell id="QiIq8ysfyUFUvmuUfaci-131" style="edgeStyle=orthogonalEdgeStyle;shape=connector;curved=1;rounded=0;sketch=1;jiggle=2;curveFitting=1;orthogonalLoop=1;jettySize=auto;html=1;exitX=0.5;exitY=1;exitDx=0;exitDy=0;entryX=0.5;entryY=0;entryDx=0;entryDy=0;labelBackgroundColor=default;strokeColor=default;fontFamily=Pangolin;fontSource=https%3A%2F%2Ffonts.googleapis.com%2Fcss%3Ffamily%3DPangolin;fontSize=12;fontColor=default;endArrow=classic;" parent="1" source="QiIq8ysfyUFUvmuUfaci-137" target="QiIq8ysfyUFUvmuUfaci-182" edge="1"><mxGeometry relative="1" as="geometry"/></mxCell><mxCell id="QiIq8ysfyUFUvmuUfaci-132" style="edgeStyle=orthogonalEdgeStyle;shape=connector;curved=1;rounded=0;sketch=1;jiggle=2;curveFitting=1;orthogonalLoop=1;jettySize=auto;html=1;exitX=0.5;exitY=1;exitDx=0;exitDy=0;labelBackgroundColor=default;strokeColor=default;fontFamily=Pangolin;fontSource=https%3A%2F%2Ffonts.googleapis.com%2Fcss%3Ffamily%3DPangolin;fontSize=12;fontColor=default;endArrow=classic;" parent="1" source="QiIq8ysfyUFUvmuUfaci-137" target="QiIq8ysfyUFUvmuUfaci-215" edge="1"><mxGeometry relative="1" as="geometry"/></mxCell><mxCell id="QiIq8ysfyUFUvmuUfaci-133" style="edgeStyle=orthogonalEdgeStyle;shape=connector;curved=1;rounded=0;sketch=1;jiggle=2;curveFitting=1;orthogonalLoop=1;jettySize=auto;html=1;exitX=0.5;exitY=1;exitDx=0;exitDy=0;labelBackgroundColor=default;strokeColor=default;fontFamily=Pangolin;fontSource=https%3A%2F%2Ffonts.googleapis.com%2Fcss%3Ffamily%3DPangolin;fontSize=12;fontColor=default;endArrow=classic;" parent="1" source="QiIq8ysfyUFUvmuUfaci-137" target="QiIq8ysfyUFUvmuUfaci-218" edge="1"><mxGeometry relative="1" as="geometry"/></mxCell><mxCell id="QiIq8ysfyUFUvmuUfaci-134" style="edgeStyle=orthogonalEdgeStyle;shape=connector;curved=1;rounded=0;sketch=1;jiggle=2;curveFitting=1;orthogonalLoop=1;jettySize=auto;html=1;exitX=0.5;exitY=1;exitDx=0;exitDy=0;labelBackgroundColor=default;strokeColor=default;fontFamily=Pangolin;fontSource=https%3A%2F%2Ffonts.googleapis.com%2Fcss%3Ffamily%3DPangolin;fontSize=12;fontColor=default;endArrow=classic;" parent="1" source="QiIq8ysfyUFUvmuUfaci-137" target="QiIq8ysfyUFUvmuUfaci-225" edge="1"><mxGeometry relative="1" as="geometry"/></mxCell><mxCell id="QiIq8ysfyUFUvmuUfaci-135" style="edgeStyle=orthogonalEdgeStyle;shape=connector;curved=1;rounded=0;sketch=1;jiggle=2;curveFitting=1;orthogonalLoop=1;jettySize=auto;html=1;exitX=0.5;exitY=1;exitDx=0;exitDy=0;labelBackgroundColor=default;strokeColor=default;fontFamily=Pangolin;fontSource=https%3A%2F%2Ffonts.googleapis.com%2Fcss%3Ffamily%3DPangolin;fontSize=12;fontColor=default;endArrow=classic;" parent="1" source="QiIq8ysfyUFUvmuUfaci-137" target="QiIq8ysfyUFUvmuUfaci-232" edge="1"><mxGeometry relative="1" as="geometry"/></mxCell><mxCell id="QiIq8ysfyUFUvmuUfaci-136" style="edgeStyle=orthogonalEdgeStyle;shape=connector;curved=1;rounded=0;sketch=1;jiggle=2;curveFitting=1;orthogonalLoop=1;jettySize=auto;html=1;exitX=0.5;exitY=1;exitDx=0;exitDy=0;labelBackgroundColor=default;strokeColor=default;fontFamily=Pangolin;fontSource=https%3A%2F%2Ffonts.googleapis.com%2Fcss%3Ffamily%3DPangolin;fontSize=12;fontColor=default;endArrow=classic;" parent="1" source="QiIq8ysfyUFUvmuUfaci-137" target="QiIq8ysfyUFUvmuUfaci-245" edge="1"><mxGeometry relative="1" as="geometry"/></mxCell><mxCell id="QiIq8ysfyUFUvmuUfaci-137" value="Run" style="rounded=1;whiteSpace=wrap;html=1;sketch=1;curveFitting=1;jiggle=2;fontFamily=Pangolin;fontSource=https%3A%2F%2Ffonts.googleapis.com%2Fcss%3Ffamily%3DPangolin;" parent="1" vertex="1"><mxGeometry x="516" y="-923.5" width="120" height="60" as="geometry"/></mxCell><mxCell id="QiIq8ysfyUFUvmuUfaci-138" style="edgeStyle=orthogonalEdgeStyle;shape=connector;curved=1;rounded=0;sketch=1;jiggle=2;curveFitting=1;orthogonalLoop=1;jettySize=auto;html=1;exitX=0.5;exitY=1;exitDx=0;exitDy=0;entryX=0;entryY=0.5;entryDx=0;entryDy=0;labelBackgroundColor=default;strokeColor=default;fontFamily=Helvetica;fontSize=11;fontColor=default;endArrow=classic;" parent="1" source="QiIq8ysfyUFUvmuUfaci-141" target="QiIq8ysfyUFUvmuUfaci-161" edge="1"><mxGeometry relative="1" as="geometry"/></mxCell><mxCell id="QiIq8ysfyUFUvmuUfaci-139" style="edgeStyle=orthogonalEdgeStyle;shape=connector;curved=1;rounded=0;sketch=1;jiggle=2;curveFitting=1;orthogonalLoop=1;jettySize=auto;html=1;exitX=0.5;exitY=1;exitDx=0;exitDy=0;entryX=0;entryY=0.5;entryDx=0;entryDy=0;labelBackgroundColor=default;strokeColor=default;fontFamily=Helvetica;fontSize=11;fontColor=default;endArrow=classic;" parent="1" source="QiIq8ysfyUFUvmuUfaci-141" target="QiIq8ysfyUFUvmuUfaci-162" edge="1"><mxGeometry relative="1" as="geometry"/></mxCell><mxCell id="QiIq8ysfyUFUvmuUfaci-140" style="edgeStyle=orthogonalEdgeStyle;shape=connector;curved=1;rounded=0;sketch=1;jiggle=2;curveFitting=1;orthogonalLoop=1;jettySize=auto;html=1;exitX=0.5;exitY=1;exitDx=0;exitDy=0;entryX=-0.004;entryY=0.453;entryDx=0;entryDy=0;entryPerimeter=0;labelBackgroundColor=default;strokeColor=default;fontFamily=Helvetica;fontSize=11;fontColor=default;endArrow=classic;" parent="1" source="QiIq8ysfyUFUvmuUfaci-141" target="QiIq8ysfyUFUvmuUfaci-163" edge="1"><mxGeometry relative="1" as="geometry"/></mxCell><mxCell id="QiIq8ysfyUFUvmuUfaci-141" value="Архитектура фреймоврка&lt;br&gt;SEAF.Kernel" style="rounded=1;whiteSpace=wrap;html=1;sketch=1;curveFitting=1;jiggle=2;fontFamily=Pangolin;fontSource=https%3A%2F%2Ffonts.googleapis.com%2Fcss%3Ffamily%3DPangolin;" parent="1" vertex="1"><mxGeometry x="-1976" y="-711" width="120" height="79" as="geometry"/></mxCell><mxCell id="QiIq8ysfyUFUvmuUfaci-142" style="edgeStyle=orthogonalEdgeStyle;shape=connector;curved=1;rounded=0;sketch=1;jiggle=2;curveFitting=1;orthogonalLoop=1;jettySize=auto;html=1;exitX=0.5;exitY=1;exitDx=0;exitDy=0;entryX=0;entryY=0.5;entryDx=0;entryDy=0;labelBackgroundColor=default;strokeColor=default;fontFamily=Helvetica;fontSize=11;fontColor=default;endArrow=classic;" parent="1" source="QiIq8ysfyUFUvmuUfaci-144" target="QiIq8ysfyUFUvmuUfaci-164" edge="1"><mxGeometry relative="1" as="geometry"/></mxCell><mxCell id="QiIq8ysfyUFUvmuUfaci-143" style="edgeStyle=orthogonalEdgeStyle;shape=connector;curved=1;rounded=0;sketch=1;jiggle=2;curveFitting=1;orthogonalLoop=1;jettySize=auto;html=1;exitX=0.5;exitY=1;exitDx=0;exitDy=0;entryX=0;entryY=0.5;entryDx=0;entryDy=0;labelBackgroundColor=default;strokeColor=default;fontFamily=Helvetica;fontSize=11;fontColor=default;endArrow=classic;" parent="1" source="QiIq8ysfyUFUvmuUfaci-144" target="QiIq8ysfyUFUvmuUfaci-165" edge="1"><mxGeometry relative="1" as="geometry"/></mxCell><mxCell id="QiIq8ysfyUFUvmuUfaci-144" value="Инструменты" style="rounded=1;whiteSpace=wrap;html=1;sketch=1;curveFitting=1;jiggle=2;fontFamily=Pangolin;fontSource=https%3A%2F%2Ffonts.googleapis.com%2Fcss%3Ffamily%3DPangolin;" parent="1" vertex="1"><mxGeometry x="-1569" y="-714" width="120" height="60" as="geometry"/></mxCell><mxCell id="QiIq8ysfyUFUvmuUfaci-145" style="edgeStyle=orthogonalEdgeStyle;shape=connector;curved=1;rounded=0;sketch=1;jiggle=2;curveFitting=1;orthogonalLoop=1;jettySize=auto;html=1;exitX=0.5;exitY=1;exitDx=0;exitDy=0;entryX=0;entryY=0.5;entryDx=0;entryDy=0;labelBackgroundColor=default;strokeColor=default;fontFamily=Helvetica;fontSize=11;fontColor=default;endArrow=classic;" parent="1" source="QiIq8ysfyUFUvmuUfaci-153" target="QiIq8ysfyUFUvmuUfaci-166" edge="1"><mxGeometry relative="1" as="geometry"/></mxCell><mxCell id="QiIq8ysfyUFUvmuUfaci-146" style="edgeStyle=orthogonalEdgeStyle;shape=connector;curved=1;rounded=0;sketch=1;jiggle=2;curveFitting=1;orthogonalLoop=1;jettySize=auto;html=1;exitX=0.5;exitY=1;exitDx=0;exitDy=0;entryX=0;entryY=0.5;entryDx=0;entryDy=0;labelBackgroundColor=default;strokeColor=default;fontFamily=Helvetica;fontSize=11;fontColor=default;endArrow=classic;" parent="1" source="QiIq8ysfyUFUvmuUfaci-153" target="QiIq8ysfyUFUvmuUfaci-167" edge="1"><mxGeometry relative="1" as="geometry"/></mxCell><mxCell id="QiIq8ysfyUFUvmuUfaci-147" style="edgeStyle=orthogonalEdgeStyle;shape=connector;curved=1;rounded=0;sketch=1;jiggle=2;curveFitting=1;orthogonalLoop=1;jettySize=auto;html=1;exitX=0.5;exitY=1;exitDx=0;exitDy=0;entryX=0;entryY=0.5;entryDx=0;entryDy=0;labelBackgroundColor=default;strokeColor=default;fontFamily=Helvetica;fontSize=11;fontColor=default;endArrow=classic;" parent="1" source="QiIq8ysfyUFUvmuUfaci-153" target="QiIq8ysfyUFUvmuUfaci-168" edge="1"><mxGeometry relative="1" as="geometry"/></mxCell><mxCell id="QiIq8ysfyUFUvmuUfaci-148" style="edgeStyle=orthogonalEdgeStyle;shape=connector;curved=1;rounded=0;sketch=1;jiggle=2;curveFitting=1;orthogonalLoop=1;jettySize=auto;html=1;exitX=0.5;exitY=1;exitDx=0;exitDy=0;entryX=0;entryY=0.5;entryDx=0;entryDy=0;labelBackgroundColor=default;strokeColor=default;fontFamily=Helvetica;fontSize=11;fontColor=default;endArrow=classic;" parent="1" source="QiIq8ysfyUFUvmuUfaci-153" target="QiIq8ysfyUFUvmuUfaci-169" edge="1"><mxGeometry relative="1" as="geometry"/></mxCell><mxCell id="QiIq8ysfyUFUvmuUfaci-149" style="edgeStyle=orthogonalEdgeStyle;shape=connector;curved=1;rounded=0;sketch=1;jiggle=2;curveFitting=1;orthogonalLoop=1;jettySize=auto;html=1;exitX=0.5;exitY=1;exitDx=0;exitDy=0;entryX=0;entryY=0.5;entryDx=0;entryDy=0;labelBackgroundColor=default;strokeColor=default;fontFamily=Helvetica;fontSize=11;fontColor=default;endArrow=classic;" parent="1" source="QiIq8ysfyUFUvmuUfaci-153" target="QiIq8ysfyUFUvmuUfaci-170" edge="1"><mxGeometry relative="1" as="geometry"/></mxCell><mxCell id="QiIq8ysfyUFUvmuUfaci-150" style="edgeStyle=orthogonalEdgeStyle;shape=connector;curved=1;rounded=0;sketch=1;jiggle=2;curveFitting=1;orthogonalLoop=1;jettySize=auto;html=1;exitX=0.5;exitY=1;exitDx=0;exitDy=0;entryX=0;entryY=0.5;entryDx=0;entryDy=0;labelBackgroundColor=default;strokeColor=default;fontFamily=Pangolin;fontSource=https%3A%2F%2Ffonts.googleapis.com%2Fcss%3Ffamily%3DPangolin;fontSize=12;fontColor=default;endArrow=classic;" parent="1" source="QiIq8ysfyUFUvmuUfaci-153" target="QiIq8ysfyUFUvmuUfaci-214" edge="1"><mxGeometry relative="1" as="geometry"/></mxCell><mxCell id="QiIq8ysfyUFUvmuUfaci-151" style="edgeStyle=orthogonalEdgeStyle;shape=connector;curved=1;rounded=0;sketch=1;jiggle=2;curveFitting=1;orthogonalLoop=1;jettySize=auto;html=1;exitX=0.5;exitY=1;exitDx=0;exitDy=0;entryX=0;entryY=0.5;entryDx=0;entryDy=0;labelBackgroundColor=default;strokeColor=default;fontFamily=Pangolin;fontSource=https%3A%2F%2Ffonts.googleapis.com%2Fcss%3Ffamily%3DPangolin;fontSize=12;fontColor=default;endArrow=classic;" parent="1" source="QiIq8ysfyUFUvmuUfaci-153" target="QiIq8ysfyUFUvmuUfaci-213" edge="1"><mxGeometry relative="1" as="geometry"/></mxCell><mxCell id="QiIq8ysfyUFUvmuUfaci-152" style="edgeStyle=orthogonalEdgeStyle;shape=connector;curved=1;rounded=0;sketch=1;jiggle=2;curveFitting=1;orthogonalLoop=1;jettySize=auto;html=1;exitX=0.5;exitY=1;exitDx=0;exitDy=0;entryX=0;entryY=0.5;entryDx=0;entryDy=0;labelBackgroundColor=default;strokeColor=default;fontFamily=Helvetica;fontSize=11;fontColor=default;endArrow=classic;" parent="1" source="QiIq8ysfyUFUvmuUfaci-153" target="QiIq8ysfyUFUvmuUfaci-333" edge="1"><mxGeometry relative="1" as="geometry"/></mxCell><mxCell id="QiIq8ysfyUFUvmuUfaci-153" value="Развитие процессов ДКА" style="rounded=1;whiteSpace=wrap;html=1;sketch=1;curveFitting=1;jiggle=2;fontFamily=Pangolin;fontSource=https%3A%2F%2Ffonts.googleapis.com%2Fcss%3Ffamily%3DPangolin;" parent="1" vertex="1"><mxGeometry x="-1366" y="-716.5" width="120" height="60" as="geometry"/></mxCell><mxCell id="QiIq8ysfyUFUvmuUfaci-154" style="edgeStyle=orthogonalEdgeStyle;shape=connector;curved=1;rounded=0;sketch=1;jiggle=2;curveFitting=1;orthogonalLoop=1;jettySize=auto;html=1;exitX=0.5;exitY=1;exitDx=0;exitDy=0;entryX=0;entryY=0.5;entryDx=0;entryDy=0;labelBackgroundColor=default;strokeColor=default;fontFamily=Helvetica;fontSize=11;fontColor=default;endArrow=classic;" parent="1" source="QiIq8ysfyUFUvmuUfaci-280" target="QiIq8ysfyUFUvmuUfaci-171" edge="1"><mxGeometry relative="1" as="geometry"/></mxCell><mxCell id="QiIq8ysfyUFUvmuUfaci-155" style="edgeStyle=orthogonalEdgeStyle;shape=connector;curved=1;rounded=0;sketch=1;jiggle=2;curveFitting=1;orthogonalLoop=1;jettySize=auto;html=1;exitX=0.5;exitY=1;exitDx=0;exitDy=0;entryX=0;entryY=0.5;entryDx=0;entryDy=0;labelBackgroundColor=default;strokeColor=default;fontFamily=Helvetica;fontSize=11;fontColor=default;endArrow=classic;" parent="1" source="QiIq8ysfyUFUvmuUfaci-280" target="QiIq8ysfyUFUvmuUfaci-172" edge="1"><mxGeometry relative="1" as="geometry"/></mxCell><mxCell id="QiIq8ysfyUFUvmuUfaci-156" style="edgeStyle=orthogonalEdgeStyle;shape=connector;curved=1;rounded=0;sketch=1;jiggle=2;curveFitting=1;orthogonalLoop=1;jettySize=auto;html=1;exitX=0.5;exitY=1;exitDx=0;exitDy=0;entryX=0;entryY=0.5;entryDx=0;entryDy=0;labelBackgroundColor=default;strokeColor=default;fontFamily=Helvetica;fontSize=11;fontColor=default;endArrow=classic;" parent="1" source="QiIq8ysfyUFUvmuUfaci-280" target="QiIq8ysfyUFUvmuUfaci-173" edge="1"><mxGeometry relative="1" as="geometry"/></mxCell><mxCell id="QiIq8ysfyUFUvmuUfaci-157" style="edgeStyle=orthogonalEdgeStyle;shape=connector;curved=1;rounded=0;sketch=1;jiggle=2;curveFitting=1;orthogonalLoop=1;jettySize=auto;html=1;exitX=0.5;exitY=1;exitDx=0;exitDy=0;entryX=0;entryY=0.5;entryDx=0;entryDy=0;labelBackgroundColor=default;strokeColor=default;fontFamily=Helvetica;fontSize=11;fontColor=default;endArrow=classic;" parent="1" source="QiIq8ysfyUFUvmuUfaci-280" target="QiIq8ysfyUFUvmuUfaci-174" edge="1"><mxGeometry relative="1" as="geometry"/></mxCell><mxCell id="QiIq8ysfyUFUvmuUfaci-158" style="edgeStyle=orthogonalEdgeStyle;shape=connector;curved=1;rounded=0;sketch=1;jiggle=2;curveFitting=1;orthogonalLoop=1;jettySize=auto;html=1;exitX=0.5;exitY=1;exitDx=0;exitDy=0;entryX=0;entryY=0.5;entryDx=0;entryDy=0;labelBackgroundColor=default;strokeColor=default;fontFamily=Helvetica;fontSize=11;fontColor=default;endArrow=classic;" parent="1" source="QiIq8ysfyUFUvmuUfaci-160" target="QiIq8ysfyUFUvmuUfaci-281" edge="1"><mxGeometry relative="1" as="geometry"/></mxCell><mxCell id="QiIq8ysfyUFUvmuUfaci-159" style="edgeStyle=orthogonalEdgeStyle;shape=connector;curved=1;rounded=0;sketch=1;jiggle=2;curveFitting=1;orthogonalLoop=1;jettySize=auto;html=1;exitX=0.5;exitY=1;exitDx=0;exitDy=0;entryX=0;entryY=0.5;entryDx=0;entryDy=0;labelBackgroundColor=default;strokeColor=default;fontFamily=Helvetica;fontSize=11;fontColor=default;endArrow=classic;" parent="1" source="QiIq8ysfyUFUvmuUfaci-160" target="QiIq8ysfyUFUvmuUfaci-280" edge="1"><mxGeometry relative="1" as="geometry"/></mxCell><mxCell id="QiIq8ysfyUFUvmuUfaci-160" value="Развитие производственного процесса SEAF.Kernel" style="rounded=1;whiteSpace=wrap;html=1;sketch=1;curveFitting=1;jiggle=2;fontFamily=Pangolin;fontSource=https%3A%2F%2Ffonts.googleapis.com%2Fcss%3Ffamily%3DPangolin;" parent="1" vertex="1"><mxGeometry x="-1763" y="-723.5" width="120" height="96.5" as="geometry"/></mxCell><mxCell id="QiIq8ysfyUFUvmuUfaci-161" value="seaf_mm_archgov" style="rounded=1;whiteSpace=wrap;html=1;sketch=1;curveFitting=1;jiggle=2;fontFamily=Pangolin;fontSource=https%3A%2F%2Ffonts.googleapis.com%2Fcss%3Ffamily%3DPangolin;" parent="1" vertex="1"><mxGeometry x="-1890" y="-606" width="120" height="60" as="geometry"/></mxCell><mxCell id="QiIq8ysfyUFUvmuUfaci-162" value="seaf_mm_company" style="rounded=1;whiteSpace=wrap;html=1;sketch=1;curveFitting=1;jiggle=2;fontFamily=Pangolin;fontSource=https%3A%2F%2Ffonts.googleapis.com%2Fcss%3Ffamily%3DPangolin;" parent="1" vertex="1"><mxGeometry x="-1890" y="-530" width="120" height="60" as="geometry"/></mxCell><mxCell id="QiIq8ysfyUFUvmuUfaci-163" value="&lt;span style=&quot;color: rgb(0, 0, 0); font-family: Pangolin; font-style: normal; font-variant-ligatures: normal; font-variant-caps: normal; font-weight: 400; letter-spacing: normal; orphans: 2; text-align: center; text-indent: 0px; text-transform: none; widows: 2; word-spacing: 0px; -webkit-text-stroke-width: 0px; background-color: rgb(255, 255, 255); text-decoration-thickness: initial; text-decoration-style: initial; text-decoration-color: initial; float: none; display: inline !important;&quot;&gt;&lt;font style=&quot;font-size: 12px;&quot;&gt;seaf_mechanics&lt;/font&gt;&lt;/span&gt;" style="rounded=1;whiteSpace=wrap;html=1;sketch=1;curveFitting=1;jiggle=2;fontFamily=Pangolin;fontSource=https%3A%2F%2Ffonts.googleapis.com%2Fcss%3Ffamily%3DPangolin;" parent="1" vertex="1"><mxGeometry x="-1890" y="-459" width="120" height="61" as="geometry"/></mxCell><mxCell id="QiIq8ysfyUFUvmuUfaci-164" value="seaf_archtool" style="rounded=1;whiteSpace=wrap;html=1;sketch=1;curveFitting=1;jiggle=2;fontFamily=Pangolin;fontSource=https%3A%2F%2Ffonts.googleapis.com%2Fcss%3Ffamily%3DPangolin;" parent="1" vertex="1"><mxGeometry x="-1479" y="-622" width="120" height="60" as="geometry"/></mxCell><mxCell id="QiIq8ysfyUFUvmuUfaci-165" value="seaf_era" style="rounded=1;whiteSpace=wrap;html=1;sketch=1;curveFitting=1;jiggle=2;fontFamily=Pangolin;fontSource=https%3A%2F%2Ffonts.googleapis.com%2Fcss%3Ffamily%3DPangolin;" parent="1" vertex="1"><mxGeometry x="-1475" y="-543" width="120" height="60" as="geometry"/></mxCell><mxCell id="QiIq8ysfyUFUvmuUfaci-166" value="seaf_change_p2649" style="rounded=1;whiteSpace=wrap;html=1;sketch=1;curveFitting=1;jiggle=2;fontFamily=Pangolin;fontSource=https%3A%2F%2Ffonts.googleapis.com%2Fcss%3Ffamily%3DPangolin;" parent="1" vertex="1"><mxGeometry x="-1263" y="-624.5" width="120" height="60" as="geometry"/></mxCell><mxCell id="QiIq8ysfyUFUvmuUfaci-167" value="seaf_change_p2652" style="rounded=1;whiteSpace=wrap;html=1;sketch=1;curveFitting=1;jiggle=2;fontFamily=Pangolin;fontSource=https%3A%2F%2Ffonts.googleapis.com%2Fcss%3Ffamily%3DPangolin;" parent="1" vertex="1"><mxGeometry x="-1263" y="-556.5" width="120" height="60" as="geometry"/></mxCell><mxCell id="QiIq8ysfyUFUvmuUfaci-168" value="seaf_change_p2653" style="rounded=1;whiteSpace=wrap;html=1;sketch=1;curveFitting=1;jiggle=2;fontFamily=Pangolin;fontSource=https%3A%2F%2Ffonts.googleapis.com%2Fcss%3Ffamily%3DPangolin;" parent="1" vertex="1"><mxGeometry x="-1265" y="-489.5" width="120" height="60" as="geometry"/></mxCell><mxCell id="QiIq8ysfyUFUvmuUfaci-169" value="seaf_change_p2638" style="rounded=1;whiteSpace=wrap;html=1;sketch=1;curveFitting=1;jiggle=2;fontFamily=Pangolin;fontSource=https%3A%2F%2Ffonts.googleapis.com%2Fcss%3Ffamily%3DPangolin;" parent="1" vertex="1"><mxGeometry x="-1265" y="-425.5" width="120" height="60" as="geometry"/></mxCell><mxCell id="QiIq8ysfyUFUvmuUfaci-170" value="seaf_change_p4424" style="rounded=1;whiteSpace=wrap;html=1;sketch=1;curveFitting=1;jiggle=2;fontFamily=Pangolin;fontSource=https%3A%2F%2Ffonts.googleapis.com%2Fcss%3Ffamily%3DPangolin;" parent="1" vertex="1"><mxGeometry x="-1265" y="-357.5" width="120" height="60" as="geometry"/></mxCell><mxCell id="QiIq8ysfyUFUvmuUfaci-171" value="Описание процесса по развитию ММ" style="rounded=1;whiteSpace=wrap;html=1;sketch=1;curveFitting=1;jiggle=2;fontFamily=Pangolin;fontSource=https%3A%2F%2Ffonts.googleapis.com%2Fcss%3Ffamily%3DPangolin;" parent="1" vertex="1"><mxGeometry x="-1569" y="-365.5" width="120" height="60" as="geometry"/></mxCell><mxCell id="QiIq8ysfyUFUvmuUfaci-172" value="Описание процесса по развитию базовых механик и принципов" style="rounded=1;whiteSpace=wrap;html=1;sketch=1;curveFitting=1;jiggle=2;fontFamily=Pangolin;fontSource=https%3A%2F%2Ffonts.googleapis.com%2Fcss%3Ffamily%3DPangolin;" parent="1" vertex="1"><mxGeometry x="-1564" y="-295" width="120" height="60" as="geometry"/></mxCell><mxCell id="QiIq8ysfyUFUvmuUfaci-173" value="Описание процесса по развитию инструмента" style="rounded=1;whiteSpace=wrap;html=1;sketch=1;curveFitting=1;jiggle=2;fontFamily=Pangolin;fontSource=https%3A%2F%2Ffonts.googleapis.com%2Fcss%3Ffamily%3DPangolin;" parent="1" vertex="1"><mxGeometry x="-1564" y="-215.75" width="120" height="60" as="geometry"/></mxCell><mxCell id="QiIq8ysfyUFUvmuUfaci-174" value="Описание процесса по развитию процессов ДКА" style="rounded=1;whiteSpace=wrap;html=1;sketch=1;curveFitting=1;jiggle=2;fontFamily=Pangolin;fontSource=https%3A%2F%2Ffonts.googleapis.com%2Fcss%3Ffamily%3DPangolin;" parent="1" vertex="1"><mxGeometry x="-1564" y="-141" width="120" height="60" as="geometry"/></mxCell><mxCell id="QiIq8ysfyUFUvmuUfaci-175" style="edgeStyle=orthogonalEdgeStyle;shape=connector;curved=1;rounded=0;sketch=1;jiggle=2;curveFitting=1;orthogonalLoop=1;jettySize=auto;html=1;exitX=0.5;exitY=1;exitDx=0;exitDy=0;entryX=0;entryY=0.5;entryDx=0;entryDy=0;labelBackgroundColor=default;strokeColor=default;fontFamily=Pangolin;fontSource=https%3A%2F%2Ffonts.googleapis.com%2Fcss%3Ffamily%3DPangolin;fontSize=12;fontColor=default;endArrow=classic;" parent="1" source="QiIq8ysfyUFUvmuUfaci-182" target="QiIq8ysfyUFUvmuUfaci-210" edge="1"><mxGeometry relative="1" as="geometry"/></mxCell><mxCell id="QiIq8ysfyUFUvmuUfaci-176" style="edgeStyle=orthogonalEdgeStyle;shape=connector;curved=1;rounded=0;sketch=1;jiggle=2;curveFitting=1;orthogonalLoop=1;jettySize=auto;html=1;exitX=0.5;exitY=1;exitDx=0;exitDy=0;entryX=0;entryY=0.5;entryDx=0;entryDy=0;labelBackgroundColor=default;strokeColor=default;fontFamily=Pangolin;fontSource=https%3A%2F%2Ffonts.googleapis.com%2Fcss%3Ffamily%3DPangolin;fontSize=12;fontColor=default;endArrow=classic;" parent="1" source="QiIq8ysfyUFUvmuUfaci-182" target="QiIq8ysfyUFUvmuUfaci-211" edge="1"><mxGeometry relative="1" as="geometry"/></mxCell><mxCell id="QiIq8ysfyUFUvmuUfaci-177" style="edgeStyle=orthogonalEdgeStyle;shape=connector;curved=1;rounded=0;sketch=1;jiggle=2;curveFitting=1;orthogonalLoop=1;jettySize=auto;html=1;exitX=0.5;exitY=1;exitDx=0;exitDy=0;entryX=0;entryY=0.5;entryDx=0;entryDy=0;labelBackgroundColor=default;strokeColor=default;fontFamily=Pangolin;fontSource=https%3A%2F%2Ffonts.googleapis.com%2Fcss%3Ffamily%3DPangolin;fontSize=12;fontColor=default;endArrow=classic;" parent="1" source="QiIq8ysfyUFUvmuUfaci-211" target="QiIq8ysfyUFUvmuUfaci-184" edge="1"><mxGeometry relative="1" as="geometry"/></mxCell><mxCell id="QiIq8ysfyUFUvmuUfaci-178" style="edgeStyle=orthogonalEdgeStyle;shape=connector;curved=1;rounded=0;sketch=1;jiggle=2;curveFitting=1;orthogonalLoop=1;jettySize=auto;html=1;exitX=0.5;exitY=1;exitDx=0;exitDy=0;entryX=0;entryY=0.5;entryDx=0;entryDy=0;labelBackgroundColor=default;strokeColor=default;fontFamily=Pangolin;fontSource=https%3A%2F%2Ffonts.googleapis.com%2Fcss%3Ffamily%3DPangolin;fontSize=12;fontColor=default;endArrow=classic;" parent="1" source="QiIq8ysfyUFUvmuUfaci-211" target="QiIq8ysfyUFUvmuUfaci-208" edge="1"><mxGeometry relative="1" as="geometry"/></mxCell><mxCell id="QiIq8ysfyUFUvmuUfaci-179" style="edgeStyle=orthogonalEdgeStyle;shape=connector;curved=1;rounded=0;sketch=1;jiggle=2;curveFitting=1;orthogonalLoop=1;jettySize=auto;html=1;exitX=0.5;exitY=1;exitDx=0;exitDy=0;entryX=0;entryY=0.5;entryDx=0;entryDy=0;labelBackgroundColor=default;strokeColor=default;fontFamily=Pangolin;fontSource=https%3A%2F%2Ffonts.googleapis.com%2Fcss%3Ffamily%3DPangolin;fontSize=12;fontColor=default;endArrow=classic;" parent="1" source="QiIq8ysfyUFUvmuUfaci-211" target="QiIq8ysfyUFUvmuUfaci-185" edge="1"><mxGeometry relative="1" as="geometry"/></mxCell><mxCell id="QiIq8ysfyUFUvmuUfaci-180" style="edgeStyle=orthogonalEdgeStyle;shape=connector;curved=1;rounded=0;sketch=1;jiggle=2;curveFitting=1;orthogonalLoop=1;jettySize=auto;html=1;exitX=0.5;exitY=1;exitDx=0;exitDy=0;entryX=0;entryY=0.5;entryDx=0;entryDy=0;labelBackgroundColor=default;strokeColor=default;fontFamily=Pangolin;fontSource=https%3A%2F%2Ffonts.googleapis.com%2Fcss%3Ffamily%3DPangolin;fontSize=12;fontColor=default;endArrow=classic;" parent="1" source="QiIq8ysfyUFUvmuUfaci-211" target="QiIq8ysfyUFUvmuUfaci-186" edge="1"><mxGeometry relative="1" as="geometry"/></mxCell><mxCell id="QiIq8ysfyUFUvmuUfaci-181" style="edgeStyle=orthogonalEdgeStyle;shape=connector;curved=1;rounded=0;sketch=1;jiggle=2;curveFitting=1;orthogonalLoop=1;jettySize=auto;html=1;exitX=0.5;exitY=1;exitDx=0;exitDy=0;entryX=0;entryY=0.5;entryDx=0;entryDy=0;labelBackgroundColor=default;strokeColor=default;fontFamily=Pangolin;fontSource=https%3A%2F%2Ffonts.googleapis.com%2Fcss%3Ffamily%3DPangolin;fontSize=12;fontColor=default;endArrow=classic;" parent="1" source="QiIq8ysfyUFUvmuUfaci-182" target="QiIq8ysfyUFUvmuUfaci-212" edge="1"><mxGeometry relative="1" as="geometry"/></mxCell><mxCell id="QiIq8ysfyUFUvmuUfaci-182" value="seaf_bok" style="rounded=1;whiteSpace=wrap;html=1;sketch=1;curveFitting=1;jiggle=2;fontFamily=Pangolin;fontSource=https%3A%2F%2Ffonts.googleapis.com%2Fcss%3Ffamily%3DPangolin;" parent="1" vertex="1"><mxGeometry x="-57" y="-727" width="120" height="60" as="geometry"/></mxCell><mxCell id="QiIq8ysfyUFUvmuUfaci-183" style="edgeStyle=orthogonalEdgeStyle;shape=connector;curved=1;rounded=0;sketch=1;jiggle=2;curveFitting=1;orthogonalLoop=1;jettySize=auto;html=1;exitX=1;exitY=0.5;exitDx=0;exitDy=0;labelBackgroundColor=default;strokeColor=default;fontFamily=Pangolin;fontSource=https%3A%2F%2Ffonts.googleapis.com%2Fcss%3Ffamily%3DPangolin;fontSize=12;fontColor=default;endArrow=classic;" parent="1" source="QiIq8ysfyUFUvmuUfaci-184" target="QiIq8ysfyUFUvmuUfaci-338" edge="1"><mxGeometry relative="1" as="geometry"/></mxCell><mxCell id="QiIq8ysfyUFUvmuUfaci-184" value="&lt;strike&gt;Референсные артефакты&lt;/strike&gt;" style="rounded=1;whiteSpace=wrap;html=1;sketch=1;curveFitting=1;jiggle=2;fontFamily=Pangolin;fontSource=https%3A%2F%2Ffonts.googleapis.com%2Fcss%3Ffamily%3DPangolin;" parent="1" vertex="1"><mxGeometry x="145" y="-483.5" width="120" height="60" as="geometry"/></mxCell><mxCell id="QiIq8ysfyUFUvmuUfaci-185" value="(?) Референсные архитектуры / паттерны / РАР / ТАР" style="rounded=1;whiteSpace=wrap;html=1;sketch=1;curveFitting=1;jiggle=2;fontFamily=Pangolin;fontSource=https%3A%2F%2Ffonts.googleapis.com%2Fcss%3Ffamily%3DPangolin;" parent="1" vertex="1"><mxGeometry x="145" y="-335" width="120" height="60" as="geometry"/></mxCell><mxCell id="QiIq8ysfyUFUvmuUfaci-186" value="Референсные продукты" style="rounded=1;whiteSpace=wrap;html=1;sketch=1;curveFitting=1;jiggle=2;fontFamily=Pangolin;fontSource=https%3A%2F%2Ffonts.googleapis.com%2Fcss%3Ffamily%3DPangolin;" parent="1" vertex="1"><mxGeometry x="145" y="-260" width="120" height="60" as="geometry"/></mxCell><mxCell id="QiIq8ysfyUFUvmuUfaci-187" style="edgeStyle=orthogonalEdgeStyle;shape=connector;curved=1;rounded=0;sketch=1;jiggle=2;curveFitting=1;orthogonalLoop=1;jettySize=auto;html=1;exitX=0.5;exitY=1;exitDx=0;exitDy=0;entryX=0;entryY=0.5;entryDx=0;entryDy=0;labelBackgroundColor=default;strokeColor=default;fontFamily=Helvetica;fontSize=11;fontColor=default;endArrow=classic;" parent="1" source="QiIq8ysfyUFUvmuUfaci-192" target="QiIq8ysfyUFUvmuUfaci-193" edge="1"><mxGeometry relative="1" as="geometry"/></mxCell><mxCell id="QiIq8ysfyUFUvmuUfaci-188" style="edgeStyle=orthogonalEdgeStyle;shape=connector;curved=1;rounded=0;sketch=1;jiggle=2;curveFitting=1;orthogonalLoop=1;jettySize=auto;html=1;exitX=0.5;exitY=1;exitDx=0;exitDy=0;entryX=0;entryY=0.5;entryDx=0;entryDy=0;labelBackgroundColor=default;strokeColor=default;fontFamily=Helvetica;fontSize=11;fontColor=default;endArrow=classic;" parent="1" source="QiIq8ysfyUFUvmuUfaci-192" target="QiIq8ysfyUFUvmuUfaci-194" edge="1"><mxGeometry relative="1" as="geometry"/></mxCell><mxCell id="QiIq8ysfyUFUvmuUfaci-189" style="edgeStyle=orthogonalEdgeStyle;shape=connector;curved=1;rounded=0;sketch=1;jiggle=2;curveFitting=1;orthogonalLoop=1;jettySize=auto;html=1;exitX=0.5;exitY=1;exitDx=0;exitDy=0;entryX=0;entryY=0.5;entryDx=0;entryDy=0;labelBackgroundColor=default;strokeColor=default;fontFamily=Helvetica;fontSize=11;fontColor=default;endArrow=classic;" parent="1" source="QiIq8ysfyUFUvmuUfaci-192" target="QiIq8ysfyUFUvmuUfaci-196" edge="1"><mxGeometry relative="1" as="geometry"/></mxCell><mxCell id="QiIq8ysfyUFUvmuUfaci-190" style="edgeStyle=orthogonalEdgeStyle;shape=connector;curved=1;rounded=0;sketch=1;jiggle=2;curveFitting=1;orthogonalLoop=1;jettySize=auto;html=1;exitX=0.5;exitY=1;exitDx=0;exitDy=0;entryX=0;entryY=0.5;entryDx=0;entryDy=0;labelBackgroundColor=default;strokeColor=default;fontFamily=Helvetica;fontSize=11;fontColor=default;endArrow=classic;" parent="1" source="QiIq8ysfyUFUvmuUfaci-192" target="QiIq8ysfyUFUvmuUfaci-195" edge="1"><mxGeometry relative="1" as="geometry"/></mxCell><mxCell id="QiIq8ysfyUFUvmuUfaci-191" style="edgeStyle=orthogonalEdgeStyle;shape=connector;curved=1;rounded=0;sketch=1;jiggle=2;curveFitting=1;orthogonalLoop=1;jettySize=auto;html=1;exitX=0.5;exitY=1;exitDx=0;exitDy=0;entryX=0;entryY=0.5;entryDx=0;entryDy=0;labelBackgroundColor=default;strokeColor=default;fontFamily=Helvetica;fontSize=11;fontColor=default;endArrow=classic;" parent="1" source="QiIq8ysfyUFUvmuUfaci-192" target="QiIq8ysfyUFUvmuUfaci-197" edge="1"><mxGeometry relative="1" as="geometry"/></mxCell><mxCell id="QiIq8ysfyUFUvmuUfaci-192" value="Развитие референсных процессов ДЗО" style="rounded=1;whiteSpace=wrap;html=1;sketch=1;curveFitting=1;jiggle=2;fontFamily=Pangolin;fontSource=https%3A%2F%2Ffonts.googleapis.com%2Fcss%3Ffamily%3DPangolin;" parent="1" vertex="1"><mxGeometry x="-1143" y="-716.5" width="120" height="60" as="geometry"/></mxCell><mxCell id="QiIq8ysfyUFUvmuUfaci-193" value="seaf_change_ref_proc_EA" style="rounded=1;whiteSpace=wrap;html=1;sketch=1;curveFitting=1;jiggle=2;fontFamily=Pangolin;fontSource=https%3A%2F%2Ffonts.googleapis.com%2Fcss%3Ffamily%3DPangolin;" parent="1" vertex="1"><mxGeometry x="-1054" y="-633.5" width="153" height="60" as="geometry"/></mxCell><mxCell id="QiIq8ysfyUFUvmuUfaci-194" value="seaf_change_ref_proc_SA" style="rounded=1;whiteSpace=wrap;html=1;sketch=1;curveFitting=1;jiggle=2;fontFamily=Pangolin;fontSource=https%3A%2F%2Ffonts.googleapis.com%2Fcss%3Ffamily%3DPangolin;" parent="1" vertex="1"><mxGeometry x="-1048" y="-562.5" width="146" height="60" as="geometry"/></mxCell><mxCell id="QiIq8ysfyUFUvmuUfaci-195" value="seaf_change_ref_proc_TA" style="rounded=1;whiteSpace=wrap;html=1;sketch=1;curveFitting=1;jiggle=2;fontFamily=Pangolin;fontSource=https%3A%2F%2Ffonts.googleapis.com%2Fcss%3Ffamily%3DPangolin;" parent="1" vertex="1"><mxGeometry x="-1051" y="-421.5" width="148" height="60" as="geometry"/></mxCell><mxCell id="QiIq8ysfyUFUvmuUfaci-196" value="seaf_change_ref_proc_TD" style="rounded=1;whiteSpace=wrap;html=1;sketch=1;curveFitting=1;jiggle=2;fontFamily=Pangolin;fontSource=https%3A%2F%2Ffonts.googleapis.com%2Fcss%3Ffamily%3DPangolin;" parent="1" vertex="1"><mxGeometry x="-1050" y="-494.5" width="147" height="60" as="geometry"/></mxCell><mxCell id="QiIq8ysfyUFUvmuUfaci-197" value="(?)" style="rounded=1;whiteSpace=wrap;html=1;sketch=1;curveFitting=1;jiggle=2;fontFamily=Pangolin;fontSource=https%3A%2F%2Ffonts.googleapis.com%2Fcss%3Ffamily%3DPangolin;" parent="1" vertex="1"><mxGeometry x="-1050" y="-350.5" width="147" height="60" as="geometry"/></mxCell><mxCell id="QiIq8ysfyUFUvmuUfaci-198" style="edgeStyle=orthogonalEdgeStyle;shape=connector;curved=1;rounded=0;sketch=1;jiggle=2;curveFitting=1;orthogonalLoop=1;jettySize=auto;html=1;exitX=0.5;exitY=1;exitDx=0;exitDy=0;entryX=0;entryY=0.5;entryDx=0;entryDy=0;labelBackgroundColor=default;strokeColor=default;fontFamily=Helvetica;fontSize=11;fontColor=default;endArrow=classic;" parent="1" source="QiIq8ysfyUFUvmuUfaci-199" target="QiIq8ysfyUFUvmuUfaci-200" edge="1"><mxGeometry relative="1" as="geometry"/></mxCell><mxCell id="QiIq8ysfyUFUvmuUfaci-199" value="seaf_report&lt;span style=&quot;border-color: var(--border-color); font-size: 16px;&quot;&gt;&lt;span style=&quot;white-space: pre;&quot;&gt;&amp;nbsp;&amp;nbsp;&amp;nbsp;&amp;nbsp;&lt;/span&gt;&lt;/span&gt;" style="rounded=1;whiteSpace=wrap;html=1;sketch=1;curveFitting=1;jiggle=2;fontFamily=Pangolin;fontSource=https%3A%2F%2Ffonts.googleapis.com%2Fcss%3Ffamily%3DPangolin;" parent="1" vertex="1"><mxGeometry x="-916" y="-716.5" width="120" height="60" as="geometry"/></mxCell><mxCell id="QiIq8ysfyUFUvmuUfaci-200" value="(?)" style="rounded=1;whiteSpace=wrap;html=1;sketch=1;curveFitting=1;jiggle=2;fontFamily=Pangolin;fontSource=https%3A%2F%2Ffonts.googleapis.com%2Fcss%3Ffamily%3DPangolin;" parent="1" vertex="1"><mxGeometry x="-831" y="-637" width="120" height="60" as="geometry"/></mxCell><mxCell id="QiIq8ysfyUFUvmuUfaci-201" style="edgeStyle=orthogonalEdgeStyle;shape=connector;curved=1;rounded=0;sketch=1;jiggle=2;curveFitting=1;orthogonalLoop=1;jettySize=auto;html=1;exitX=0.5;exitY=1;exitDx=0;exitDy=0;entryX=0;entryY=0.5;entryDx=0;entryDy=0;labelBackgroundColor=default;strokeColor=default;fontFamily=Pangolin;fontSource=https%3A%2F%2Ffonts.googleapis.com%2Fcss%3Ffamily%3DPangolin;fontSize=12;fontColor=default;endArrow=classic;" parent="1" source="QiIq8ysfyUFUvmuUfaci-203" target="QiIq8ysfyUFUvmuUfaci-204" edge="1"><mxGeometry relative="1" as="geometry"/></mxCell><mxCell id="QiIq8ysfyUFUvmuUfaci-202" style="edgeStyle=orthogonalEdgeStyle;shape=connector;curved=1;rounded=0;sketch=1;jiggle=2;curveFitting=1;orthogonalLoop=1;jettySize=auto;html=1;exitX=0.5;exitY=1;exitDx=0;exitDy=0;entryX=0;entryY=0.5;entryDx=0;entryDy=0;labelBackgroundColor=default;strokeColor=default;fontFamily=Pangolin;fontSource=https%3A%2F%2Ffonts.googleapis.com%2Fcss%3Ffamily%3DPangolin;fontSize=12;fontColor=default;endArrow=classic;" parent="1" source="QiIq8ysfyUFUvmuUfaci-203" target="QiIq8ysfyUFUvmuUfaci-205" edge="1"><mxGeometry relative="1" as="geometry"/></mxCell><mxCell id="QiIq8ysfyUFUvmuUfaci-203" value="Подготовка материалов по изучению и обучению СЕАФа" style="rounded=1;whiteSpace=wrap;html=1;sketch=1;curveFitting=1;jiggle=2;fontFamily=Pangolin;fontSource=https%3A%2F%2Ffonts.googleapis.com%2Fcss%3Ffamily%3DPangolin;" parent="1" vertex="1"><mxGeometry x="-711" y="-720" width="120" height="60" as="geometry"/></mxCell><mxCell id="QiIq8ysfyUFUvmuUfaci-204" value="seaf_edu_dev" style="rounded=1;whiteSpace=wrap;html=1;sketch=1;curveFitting=1;jiggle=2;fontFamily=Pangolin;fontSource=https%3A%2F%2Ffonts.googleapis.com%2Fcss%3Ffamily%3DPangolin;" parent="1" vertex="1"><mxGeometry x="-622" y="-635.5" width="120" height="60" as="geometry"/></mxCell><mxCell id="QiIq8ysfyUFUvmuUfaci-205" value="seaf_edu_use" style="rounded=1;whiteSpace=wrap;html=1;sketch=1;curveFitting=1;jiggle=2;fontFamily=Pangolin;fontSource=https%3A%2F%2Ffonts.googleapis.com%2Fcss%3Ffamily%3DPangolin;" parent="1" vertex="1"><mxGeometry x="-622" y="-560.25" width="120" height="60" as="geometry"/></mxCell><mxCell id="QiIq8ysfyUFUvmuUfaci-206" value="seaf_excel_tamplate" style="rounded=1;whiteSpace=wrap;html=1;sketch=1;curveFitting=1;jiggle=2;fontFamily=Pangolin;fontSource=https%3A%2F%2Ffonts.googleapis.com%2Fcss%3Ffamily%3DPangolin;fillColor=#fff2cc;strokeColor=#d6b656;" parent="1" vertex="1"><mxGeometry x="-1475" y="-455" width="120" height="60" as="geometry"/></mxCell><mxCell id="QiIq8ysfyUFUvmuUfaci-207" style="edgeStyle=orthogonalEdgeStyle;shape=connector;curved=1;rounded=0;sketch=1;jiggle=2;curveFitting=1;orthogonalLoop=1;jettySize=auto;html=1;exitX=1;exitY=0.5;exitDx=0;exitDy=0;labelBackgroundColor=default;strokeColor=default;fontFamily=Pangolin;fontSource=https%3A%2F%2Ffonts.googleapis.com%2Fcss%3Ffamily%3DPangolin;fontSize=12;fontColor=default;endArrow=classic;" parent="1" source="QiIq8ysfyUFUvmuUfaci-208" target="QiIq8ysfyUFUvmuUfaci-338" edge="1"><mxGeometry relative="1" as="geometry"/></mxCell><mxCell id="QiIq8ysfyUFUvmuUfaci-208" value="&lt;strike&gt;Референсные процессы&lt;/strike&gt;" style="rounded=1;whiteSpace=wrap;html=1;sketch=1;curveFitting=1;jiggle=2;fontFamily=Pangolin;fontSource=https%3A%2F%2Ffonts.googleapis.com%2Fcss%3Ffamily%3DPangolin;" parent="1" vertex="1"><mxGeometry x="145" y="-412.5" width="120" height="60" as="geometry"/></mxCell><mxCell id="QiIq8ysfyUFUvmuUfaci-209" value="Глоссарий" style="rounded=1;whiteSpace=wrap;html=1;sketch=1;curveFitting=1;jiggle=2;fontFamily=Pangolin;fontSource=https%3A%2F%2Ffonts.googleapis.com%2Fcss%3Ffamily%3DPangolin;" parent="1" vertex="1"><mxGeometry x="922" y="-663" width="120" height="60" as="geometry"/></mxCell><mxCell id="QiIq8ysfyUFUvmuUfaci-210" value="База знаний для ДКА" style="rounded=1;whiteSpace=wrap;html=1;sketch=1;curveFitting=1;jiggle=2;fontFamily=Pangolin;fontSource=https%3A%2F%2Ffonts.googleapis.com%2Fcss%3Ffamily%3DPangolin;" parent="1" vertex="1"><mxGeometry x="43" y="-651.5" width="120" height="60" as="geometry"/></mxCell><mxCell id="QiIq8ysfyUFUvmuUfaci-211" value="База знаний для ДЗО" style="rounded=1;whiteSpace=wrap;html=1;sketch=1;curveFitting=1;jiggle=2;fontFamily=Pangolin;fontSource=https%3A%2F%2Ffonts.googleapis.com%2Fcss%3Ffamily%3DPangolin;" parent="1" vertex="1"><mxGeometry x="46" y="-568.5" width="120" height="60" as="geometry"/></mxCell><mxCell id="QiIq8ysfyUFUvmuUfaci-212" value="База знаний консалтинга / практических применений" style="rounded=1;whiteSpace=wrap;html=1;sketch=1;curveFitting=1;jiggle=2;fontFamily=Pangolin;fontSource=https%3A%2F%2Ffonts.googleapis.com%2Fcss%3Ffamily%3DPangolin;" parent="1" vertex="1"><mxGeometry x="38" y="-180.25" width="120" height="60" as="geometry"/></mxCell><mxCell id="QiIq8ysfyUFUvmuUfaci-213" value="ПХХХХ" style="rounded=1;whiteSpace=wrap;html=1;sketch=1;curveFitting=1;jiggle=2;fontFamily=Pangolin;fontSource=https%3A%2F%2Ffonts.googleapis.com%2Fcss%3Ffamily%3DPangolin;" parent="1" vertex="1"><mxGeometry x="-1263" y="-90" width="120" height="60" as="geometry"/></mxCell><mxCell id="QiIq8ysfyUFUvmuUfaci-214" value="seaf_change_p_consult" style="rounded=1;whiteSpace=wrap;html=1;sketch=1;curveFitting=1;jiggle=2;fontFamily=Pangolin;fontSource=https%3A%2F%2Ffonts.googleapis.com%2Fcss%3Ffamily%3DPangolin;" parent="1" vertex="1"><mxGeometry x="-1263" y="-288" width="120" height="60" as="geometry"/></mxCell><mxCell id="QiIq8ysfyUFUvmuUfaci-215" value="seaf_team_skills" style="rounded=1;whiteSpace=wrap;html=1;sketch=1;curveFitting=1;jiggle=2;fontFamily=Pangolin;fontSource=https%3A%2F%2Ffonts.googleapis.com%2Fcss%3Ffamily%3DPangolin;" parent="1" vertex="1"><mxGeometry x="308" y="-734.5" width="120" height="60" as="geometry"/></mxCell><mxCell id="QiIq8ysfyUFUvmuUfaci-216" style="edgeStyle=orthogonalEdgeStyle;shape=connector;curved=1;rounded=0;sketch=1;jiggle=2;curveFitting=1;orthogonalLoop=1;jettySize=auto;html=1;exitX=0.5;exitY=1;exitDx=0;exitDy=0;entryX=0;entryY=0.5;entryDx=0;entryDy=0;labelBackgroundColor=default;strokeColor=default;fontFamily=Pangolin;fontSource=https%3A%2F%2Ffonts.googleapis.com%2Fcss%3Ffamily%3DPangolin;fontSize=12;fontColor=default;endArrow=classic;" parent="1" source="QiIq8ysfyUFUvmuUfaci-218" target="QiIq8ysfyUFUvmuUfaci-219" edge="1"><mxGeometry relative="1" as="geometry"/></mxCell><mxCell id="QiIq8ysfyUFUvmuUfaci-217" style="edgeStyle=orthogonalEdgeStyle;shape=connector;curved=1;rounded=0;sketch=1;jiggle=2;curveFitting=1;orthogonalLoop=1;jettySize=auto;html=1;exitX=0.5;exitY=1;exitDx=0;exitDy=0;entryX=0;entryY=0.5;entryDx=0;entryDy=0;labelBackgroundColor=default;strokeColor=default;fontFamily=Pangolin;fontSource=https%3A%2F%2Ffonts.googleapis.com%2Fcss%3Ffamily%3DPangolin;fontSize=12;fontColor=default;endArrow=classic;" parent="1" source="QiIq8ysfyUFUvmuUfaci-218" target="QiIq8ysfyUFUvmuUfaci-220" edge="1"><mxGeometry relative="1" as="geometry"/></mxCell><mxCell id="QiIq8ysfyUFUvmuUfaci-218" value="seaf_report&lt;span style=&quot;border-color: var(--border-color); font-size: 16px;&quot;&gt;&lt;/span&gt;" style="rounded=1;whiteSpace=wrap;html=1;sketch=1;curveFitting=1;jiggle=2;fontFamily=Pangolin;fontSource=https%3A%2F%2Ffonts.googleapis.com%2Fcss%3Ffamily%3DPangolin;" parent="1" vertex="1"><mxGeometry x="453" y="-736" width="120" height="60" as="geometry"/></mxCell><mxCell id="QiIq8ysfyUFUvmuUfaci-219" value="Дашборд КПЭ ДКА ДЗО" style="rounded=1;whiteSpace=wrap;html=1;sketch=1;curveFitting=1;jiggle=2;fontFamily=Pangolin;fontSource=https%3A%2F%2Ffonts.googleapis.com%2Fcss%3Ffamily%3DPangolin;" parent="1" vertex="1"><mxGeometry x="537" y="-660.5" width="120" height="60" as="geometry"/></mxCell><mxCell id="QiIq8ysfyUFUvmuUfaci-220" value="Остальная отчетность" style="rounded=1;whiteSpace=wrap;html=1;sketch=1;curveFitting=1;jiggle=2;fontFamily=Pangolin;fontSource=https%3A%2F%2Ffonts.googleapis.com%2Fcss%3Ffamily%3DPangolin;" parent="1" vertex="1"><mxGeometry x="537" y="-586.5" width="120" height="60" as="geometry"/></mxCell><mxCell id="QiIq8ysfyUFUvmuUfaci-221" style="edgeStyle=orthogonalEdgeStyle;shape=connector;curved=1;rounded=0;sketch=1;jiggle=2;curveFitting=1;orthogonalLoop=1;jettySize=auto;html=1;exitX=0.5;exitY=1;exitDx=0;exitDy=0;entryX=0;entryY=0.5;entryDx=0;entryDy=0;labelBackgroundColor=default;strokeColor=default;fontFamily=Pangolin;fontSource=https%3A%2F%2Ffonts.googleapis.com%2Fcss%3Ffamily%3DPangolin;fontSize=12;fontColor=default;endArrow=classic;" parent="1" source="QiIq8ysfyUFUvmuUfaci-225" target="QiIq8ysfyUFUvmuUfaci-226" edge="1"><mxGeometry relative="1" as="geometry"/></mxCell><mxCell id="QiIq8ysfyUFUvmuUfaci-222" style="edgeStyle=orthogonalEdgeStyle;shape=connector;curved=1;rounded=0;sketch=1;jiggle=2;curveFitting=1;orthogonalLoop=1;jettySize=auto;html=1;exitX=0.5;exitY=1;exitDx=0;exitDy=0;entryX=0;entryY=0.5;entryDx=0;entryDy=0;labelBackgroundColor=default;strokeColor=default;fontFamily=Pangolin;fontSource=https%3A%2F%2Ffonts.googleapis.com%2Fcss%3Ffamily%3DPangolin;fontSize=12;fontColor=default;endArrow=classic;" parent="1" source="QiIq8ysfyUFUvmuUfaci-225" target="QiIq8ysfyUFUvmuUfaci-227" edge="1"><mxGeometry relative="1" as="geometry"/></mxCell><mxCell id="QiIq8ysfyUFUvmuUfaci-223" style="edgeStyle=orthogonalEdgeStyle;shape=connector;curved=1;rounded=0;sketch=1;jiggle=2;curveFitting=1;orthogonalLoop=1;jettySize=auto;html=1;exitX=0.5;exitY=1;exitDx=0;exitDy=0;entryX=0;entryY=0.5;entryDx=0;entryDy=0;labelBackgroundColor=default;strokeColor=default;fontFamily=Pangolin;fontSource=https%3A%2F%2Ffonts.googleapis.com%2Fcss%3Ffamily%3DPangolin;fontSize=12;fontColor=default;endArrow=classic;" parent="1" source="QiIq8ysfyUFUvmuUfaci-225" target="QiIq8ysfyUFUvmuUfaci-228" edge="1"><mxGeometry relative="1" as="geometry"/></mxCell><mxCell id="QiIq8ysfyUFUvmuUfaci-224" style="edgeStyle=orthogonalEdgeStyle;shape=connector;curved=1;rounded=0;sketch=1;jiggle=2;curveFitting=1;orthogonalLoop=1;jettySize=auto;html=1;exitX=0.5;exitY=1;exitDx=0;exitDy=0;entryX=0;entryY=0.5;entryDx=0;entryDy=0;labelBackgroundColor=default;strokeColor=default;fontFamily=Pangolin;fontSource=https%3A%2F%2Ffonts.googleapis.com%2Fcss%3Ffamily%3DPangolin;fontSize=12;fontColor=default;endArrow=classic;" parent="1" source="QiIq8ysfyUFUvmuUfaci-225" target="QiIq8ysfyUFUvmuUfaci-229" edge="1"><mxGeometry relative="1" as="geometry"/></mxCell><mxCell id="QiIq8ysfyUFUvmuUfaci-225" value="seaf_community" style="rounded=1;whiteSpace=wrap;html=1;sketch=1;curveFitting=1;jiggle=2;fontFamily=Pangolin;fontSource=https%3A%2F%2Ffonts.googleapis.com%2Fcss%3Ffamily%3DPangolin;" parent="1" vertex="1"><mxGeometry x="650" y="-736" width="120" height="60" as="geometry"/></mxCell><mxCell id="QiIq8ysfyUFUvmuUfaci-226" value="&lt;strike&gt;Модерация каналов сообщества&lt;/strike&gt;" style="rounded=1;whiteSpace=wrap;html=1;sketch=1;curveFitting=1;jiggle=2;fontFamily=Pangolin;fontSource=https%3A%2F%2Ffonts.googleapis.com%2Fcss%3Ffamily%3DPangolin;" parent="1" vertex="1"><mxGeometry x="752" y="-655" width="120" height="60" as="geometry"/></mxCell><mxCell id="QiIq8ysfyUFUvmuUfaci-227" value="Публикация контента в каналах сообщества" style="rounded=1;whiteSpace=wrap;html=1;sketch=1;curveFitting=1;jiggle=2;fontFamily=Pangolin;fontSource=https%3A%2F%2Ffonts.googleapis.com%2Fcss%3Ffamily%3DPangolin;" parent="1" vertex="1"><mxGeometry x="752" y="-581" width="120" height="60" as="geometry"/></mxCell><mxCell id="QiIq8ysfyUFUvmuUfaci-228" value="Организация ивентов" style="rounded=1;whiteSpace=wrap;html=1;sketch=1;curveFitting=1;jiggle=2;fontFamily=Pangolin;fontSource=https%3A%2F%2Ffonts.googleapis.com%2Fcss%3Ffamily%3DPangolin;" parent="1" vertex="1"><mxGeometry x="752" y="-509" width="120" height="60" as="geometry"/></mxCell><mxCell id="QiIq8ysfyUFUvmuUfaci-229" value="Сбор информации и обратной связи" style="rounded=1;whiteSpace=wrap;html=1;sketch=1;curveFitting=1;jiggle=2;fontFamily=Pangolin;fontSource=https%3A%2F%2Ffonts.googleapis.com%2Fcss%3Ffamily%3DPangolin;" parent="1" vertex="1"><mxGeometry x="752" y="-438.5" width="120" height="60" as="geometry"/></mxCell><mxCell id="QiIq8ysfyUFUvmuUfaci-230" style="edgeStyle=orthogonalEdgeStyle;shape=connector;curved=1;rounded=0;sketch=1;jiggle=2;curveFitting=1;orthogonalLoop=1;jettySize=auto;html=1;exitX=0.5;exitY=1;exitDx=0;exitDy=0;entryX=0;entryY=0.5;entryDx=0;entryDy=0;labelBackgroundColor=default;strokeColor=default;fontFamily=Pangolin;fontSource=https%3A%2F%2Ffonts.googleapis.com%2Fcss%3Ffamily%3DPangolin;fontSize=12;fontColor=default;endArrow=classic;" parent="1" source="QiIq8ysfyUFUvmuUfaci-232" target="QiIq8ysfyUFUvmuUfaci-209" edge="1"><mxGeometry relative="1" as="geometry"/></mxCell><mxCell id="QiIq8ysfyUFUvmuUfaci-231" style="edgeStyle=orthogonalEdgeStyle;shape=connector;curved=1;rounded=0;sketch=1;jiggle=2;curveFitting=1;orthogonalLoop=1;jettySize=auto;html=1;exitX=0.5;exitY=1;exitDx=0;exitDy=0;entryX=0;entryY=0.5;entryDx=0;entryDy=0;labelBackgroundColor=default;strokeColor=default;fontFamily=Pangolin;fontSource=https%3A%2F%2Ffonts.googleapis.com%2Fcss%3Ffamily%3DPangolin;fontSize=12;fontColor=default;endArrow=classic;" parent="1" source="QiIq8ysfyUFUvmuUfaci-232" target="QiIq8ysfyUFUvmuUfaci-233" edge="1"><mxGeometry relative="1" as="geometry"/></mxCell><mxCell id="QiIq8ysfyUFUvmuUfaci-232" value="seaf_mdm" style="rounded=1;whiteSpace=wrap;html=1;sketch=1;curveFitting=1;jiggle=2;fontFamily=Pangolin;fontSource=https%3A%2F%2Ffonts.googleapis.com%2Fcss%3Ffamily%3DPangolin;" parent="1" vertex="1"><mxGeometry x="839" y="-741.5" width="120" height="60" as="geometry"/></mxCell><mxCell id="QiIq8ysfyUFUvmuUfaci-233" value="Общие справочники и реестры" style="rounded=1;whiteSpace=wrap;html=1;sketch=1;curveFitting=1;jiggle=2;fontFamily=Pangolin;fontSource=https%3A%2F%2Ffonts.googleapis.com%2Fcss%3Ffamily%3DPangolin;" parent="1" vertex="1"><mxGeometry x="922" y="-593.5" width="120" height="60" as="geometry"/></mxCell><mxCell id="QiIq8ysfyUFUvmuUfaci-234" style="edgeStyle=orthogonalEdgeStyle;shape=connector;curved=1;rounded=0;sketch=1;jiggle=2;curveFitting=1;orthogonalLoop=1;jettySize=auto;html=1;exitX=0.5;exitY=1;exitDx=0;exitDy=0;entryX=0;entryY=0.5;entryDx=0;entryDy=0;labelBackgroundColor=default;strokeColor=default;fontFamily=Pangolin;fontSource=https%3A%2F%2Ffonts.googleapis.com%2Fcss%3Ffamily%3DPangolin;fontSize=18;fontColor=default;endArrow=classic;" parent="1" source="QiIq8ysfyUFUvmuUfaci-242" target="QiIq8ysfyUFUvmuUfaci-313" edge="1"><mxGeometry relative="1" as="geometry"><mxPoint x="1109" y="-636" as="targetPoint"/></mxGeometry></mxCell><mxCell id="QiIq8ysfyUFUvmuUfaci-235" style="edgeStyle=orthogonalEdgeStyle;shape=connector;curved=1;rounded=0;sketch=1;jiggle=2;curveFitting=1;orthogonalLoop=1;jettySize=auto;html=1;exitX=0.5;exitY=1;exitDx=0;exitDy=0;entryX=0;entryY=0.5;entryDx=0;entryDy=0;labelBackgroundColor=default;strokeColor=default;fontFamily=Pangolin;fontSource=https%3A%2F%2Ffonts.googleapis.com%2Fcss%3Ffamily%3DPangolin;fontSize=18;fontColor=default;endArrow=classic;" parent="1" source="QiIq8ysfyUFUvmuUfaci-242" target="QiIq8ysfyUFUvmuUfaci-314" edge="1"><mxGeometry relative="1" as="geometry"/></mxCell><mxCell id="QiIq8ysfyUFUvmuUfaci-236" style="edgeStyle=orthogonalEdgeStyle;shape=connector;curved=1;rounded=0;sketch=1;jiggle=2;curveFitting=1;orthogonalLoop=1;jettySize=auto;html=1;exitX=0.5;exitY=1;exitDx=0;exitDy=0;entryX=0;entryY=0.5;entryDx=0;entryDy=0;labelBackgroundColor=default;strokeColor=default;fontFamily=Pangolin;fontSource=https%3A%2F%2Ffonts.googleapis.com%2Fcss%3Ffamily%3DPangolin;fontSize=18;fontColor=default;endArrow=classic;" parent="1" source="QiIq8ysfyUFUvmuUfaci-242" target="QiIq8ysfyUFUvmuUfaci-315" edge="1"><mxGeometry relative="1" as="geometry"/></mxCell><mxCell id="QiIq8ysfyUFUvmuUfaci-237" style="edgeStyle=orthogonalEdgeStyle;shape=connector;curved=1;rounded=0;sketch=1;jiggle=2;curveFitting=1;orthogonalLoop=1;jettySize=auto;html=1;exitX=0.5;exitY=1;exitDx=0;exitDy=0;entryX=0;entryY=0.5;entryDx=0;entryDy=0;labelBackgroundColor=default;strokeColor=default;fontFamily=Pangolin;fontSource=https%3A%2F%2Ffonts.googleapis.com%2Fcss%3Ffamily%3DPangolin;fontSize=18;fontColor=default;endArrow=classic;" parent="1" source="QiIq8ysfyUFUvmuUfaci-242" target="QiIq8ysfyUFUvmuUfaci-316" edge="1"><mxGeometry relative="1" as="geometry"/></mxCell><mxCell id="QiIq8ysfyUFUvmuUfaci-238" style="edgeStyle=orthogonalEdgeStyle;shape=connector;curved=1;rounded=0;sketch=1;jiggle=2;curveFitting=1;orthogonalLoop=1;jettySize=auto;html=1;exitX=0.5;exitY=1;exitDx=0;exitDy=0;entryX=0;entryY=0.5;entryDx=0;entryDy=0;labelBackgroundColor=default;strokeColor=default;fontFamily=Pangolin;fontSource=https%3A%2F%2Ffonts.googleapis.com%2Fcss%3Ffamily%3DPangolin;fontSize=18;fontColor=default;endArrow=classic;" parent="1" source="QiIq8ysfyUFUvmuUfaci-242" target="QiIq8ysfyUFUvmuUfaci-317" edge="1"><mxGeometry relative="1" as="geometry"/></mxCell><mxCell id="QiIq8ysfyUFUvmuUfaci-239" style="edgeStyle=orthogonalEdgeStyle;shape=connector;curved=1;rounded=0;sketch=1;jiggle=2;curveFitting=1;orthogonalLoop=1;jettySize=auto;html=1;exitX=0.5;exitY=1;exitDx=0;exitDy=0;entryX=0;entryY=0.5;entryDx=0;entryDy=0;labelBackgroundColor=default;strokeColor=default;fontFamily=Pangolin;fontSource=https%3A%2F%2Ffonts.googleapis.com%2Fcss%3Ffamily%3DPangolin;fontSize=18;fontColor=default;endArrow=classic;" parent="1" source="QiIq8ysfyUFUvmuUfaci-242" target="QiIq8ysfyUFUvmuUfaci-318" edge="1"><mxGeometry relative="1" as="geometry"/></mxCell><mxCell id="QiIq8ysfyUFUvmuUfaci-240" style="edgeStyle=orthogonalEdgeStyle;shape=connector;curved=1;rounded=0;sketch=1;jiggle=2;curveFitting=1;orthogonalLoop=1;jettySize=auto;html=1;exitX=0.5;exitY=1;exitDx=0;exitDy=0;entryX=0;entryY=0.5;entryDx=0;entryDy=0;labelBackgroundColor=default;strokeColor=default;fontFamily=Helvetica;fontSize=11;fontColor=default;endArrow=classic;" parent="1" source="QiIq8ysfyUFUvmuUfaci-242" target="QiIq8ysfyUFUvmuUfaci-335" edge="1"><mxGeometry relative="1" as="geometry"/></mxCell><mxCell id="QiIq8ysfyUFUvmuUfaci-241" style="edgeStyle=orthogonalEdgeStyle;shape=connector;curved=1;rounded=0;sketch=1;jiggle=2;curveFitting=1;orthogonalLoop=1;jettySize=auto;html=1;exitX=0.5;exitY=1;exitDx=0;exitDy=0;entryX=0;entryY=0.5;entryDx=0;entryDy=0;labelBackgroundColor=default;strokeColor=default;fontFamily=Pangolin;fontSource=https%3A%2F%2Ffonts.googleapis.com%2Fcss%3Ffamily%3DPangolin;fontSize=12;fontColor=default;endArrow=classic;" parent="1" source="QiIq8ysfyUFUvmuUfaci-242" target="QiIq8ysfyUFUvmuUfaci-339" edge="1"><mxGeometry relative="1" as="geometry"/></mxCell><mxCell id="QiIq8ysfyUFUvmuUfaci-242" value="Процессы ДКА" style="rounded=1;whiteSpace=wrap;html=1;sketch=1;curveFitting=1;jiggle=2;fontFamily=Pangolin;fontSource=https%3A%2F%2Ffonts.googleapis.com%2Fcss%3Ffamily%3DPangolin;" parent="1" vertex="1"><mxGeometry x="1008" y="-750.5" width="120" height="60" as="geometry"/></mxCell><mxCell id="QiIq8ysfyUFUvmuUfaci-243" style="edgeStyle=orthogonalEdgeStyle;shape=connector;curved=1;rounded=0;sketch=1;jiggle=2;curveFitting=1;orthogonalLoop=1;jettySize=auto;html=1;exitX=0.5;exitY=1;exitDx=0;exitDy=0;labelBackgroundColor=default;strokeColor=default;fontFamily=Pangolin;fontSource=https%3A%2F%2Ffonts.googleapis.com%2Fcss%3Ffamily%3DPangolin;fontSize=12;fontColor=default;endArrow=classic;entryX=0.5;entryY=0;entryDx=0;entryDy=0;" parent="1" source="QiIq8ysfyUFUvmuUfaci-137" target="QiIq8ysfyUFUvmuUfaci-242" edge="1"><mxGeometry relative="1" as="geometry"><mxPoint x="13" y="-818.5" as="sourcePoint"/><mxPoint x="909" y="-731.5" as="targetPoint"/></mxGeometry></mxCell><mxCell id="QiIq8ysfyUFUvmuUfaci-244" style="edgeStyle=orthogonalEdgeStyle;shape=connector;curved=1;rounded=0;sketch=1;jiggle=2;curveFitting=1;orthogonalLoop=1;jettySize=auto;html=1;exitX=0.5;exitY=1;exitDx=0;exitDy=0;entryX=0;entryY=0.5;entryDx=0;entryDy=0;labelBackgroundColor=default;strokeColor=default;fontFamily=Pangolin;fontSource=https%3A%2F%2Ffonts.googleapis.com%2Fcss%3Ffamily%3DPangolin;fontSize=12;fontColor=default;endArrow=classic;" parent="1" source="QiIq8ysfyUFUvmuUfaci-245" target="QiIq8ysfyUFUvmuUfaci-246" edge="1"><mxGeometry relative="1" as="geometry"/></mxCell><mxCell id="QiIq8ysfyUFUvmuUfaci-245" value="&lt;strike&gt;seaf_governance&lt;/strike&gt;" style="rounded=1;whiteSpace=wrap;html=1;sketch=1;curveFitting=1;jiggle=2;fontFamily=Pangolin;fontSource=https%3A%2F%2Ffonts.googleapis.com%2Fcss%3Ffamily%3DPangolin;" parent="1" vertex="1"><mxGeometry x="1195" y="-753.5" width="120" height="60" as="geometry"/></mxCell><mxCell id="QiIq8ysfyUFUvmuUfaci-246" value="&lt;strike&gt;Мониторинг метрик / SLA по SEAF&lt;/strike&gt;" style="rounded=1;whiteSpace=wrap;html=1;sketch=1;curveFitting=1;jiggle=2;fontFamily=Pangolin;fontSource=https%3A%2F%2Ffonts.googleapis.com%2Fcss%3Ffamily%3DPangolin;" parent="1" vertex="1"><mxGeometry x="1290" y="-671.5" width="120" height="60" as="geometry"/></mxCell><mxCell id="QiIq8ysfyUFUvmuUfaci-247" style="edgeStyle=orthogonalEdgeStyle;shape=connector;curved=1;rounded=0;sketch=1;jiggle=2;curveFitting=1;orthogonalLoop=1;jettySize=auto;html=1;exitX=0.5;exitY=1;exitDx=0;exitDy=0;entryX=0.5;entryY=0;entryDx=0;entryDy=0;labelBackgroundColor=default;strokeColor=default;fontFamily=Pangolin;fontSource=https%3A%2F%2Ffonts.googleapis.com%2Fcss%3Ffamily%3DPangolin;fontSize=12;fontColor=default;endArrow=classic;" parent="1" source="QiIq8ysfyUFUvmuUfaci-250" target="QiIq8ysfyUFUvmuUfaci-130" edge="1"><mxGeometry relative="1" as="geometry"/></mxCell><mxCell id="QiIq8ysfyUFUvmuUfaci-248" style="edgeStyle=orthogonalEdgeStyle;shape=connector;curved=1;rounded=0;sketch=1;jiggle=2;curveFitting=1;orthogonalLoop=1;jettySize=auto;html=1;exitX=0.5;exitY=1;exitDx=0;exitDy=0;entryX=0.5;entryY=0;entryDx=0;entryDy=0;labelBackgroundColor=default;strokeColor=default;fontFamily=Pangolin;fontSource=https%3A%2F%2Ffonts.googleapis.com%2Fcss%3Ffamily%3DPangolin;fontSize=12;fontColor=default;endArrow=classic;" parent="1" source="QiIq8ysfyUFUvmuUfaci-250" target="QiIq8ysfyUFUvmuUfaci-137" edge="1"><mxGeometry relative="1" as="geometry"/></mxCell><mxCell id="QiIq8ysfyUFUvmuUfaci-249" style="edgeStyle=orthogonalEdgeStyle;shape=connector;curved=1;rounded=0;sketch=1;jiggle=2;curveFitting=1;orthogonalLoop=1;jettySize=auto;html=1;exitX=0.5;exitY=1;exitDx=0;exitDy=0;entryX=0.5;entryY=0;entryDx=0;entryDy=0;labelBackgroundColor=default;strokeColor=default;fontFamily=Pangolin;fontSource=https%3A%2F%2Ffonts.googleapis.com%2Fcss%3Ffamily%3DPangolin;fontSize=12;fontColor=default;endArrow=classic;" parent="1" source="QiIq8ysfyUFUvmuUfaci-250" target="QiIq8ysfyUFUvmuUfaci-253" edge="1"><mxGeometry relative="1" as="geometry"/></mxCell><mxCell id="QiIq8ysfyUFUvmuUfaci-250" value="SEAF" style="rounded=1;whiteSpace=wrap;html=1;sketch=1;curveFitting=1;jiggle=2;fontFamily=Pangolin;fontSource=https%3A%2F%2Ffonts.googleapis.com%2Fcss%3Ffamily%3DPangolin;" parent="1" vertex="1"><mxGeometry x="-338" y="-1078" width="120" height="60" as="geometry"/></mxCell><mxCell id="QiIq8ysfyUFUvmuUfaci-251" value="seaf_rnd" style="rounded=1;whiteSpace=wrap;html=1;sketch=1;curveFitting=1;jiggle=2;fontFamily=Pangolin;fontSource=https%3A%2F%2Ffonts.googleapis.com%2Fcss%3Ffamily%3DPangolin;" parent="1" vertex="1"><mxGeometry x="-520" y="-723.5" width="120" height="60" as="geometry"/></mxCell><mxCell id="QiIq8ysfyUFUvmuUfaci-252" style="edgeStyle=orthogonalEdgeStyle;shape=connector;curved=1;rounded=0;sketch=1;jiggle=2;curveFitting=1;orthogonalLoop=1;jettySize=auto;html=1;exitX=0.5;exitY=1;exitDx=0;exitDy=0;labelBackgroundColor=default;strokeColor=default;fontFamily=Pangolin;fontSource=https%3A%2F%2Ffonts.googleapis.com%2Fcss%3Ffamily%3DPangolin;fontSize=12;fontColor=default;endArrow=classic;" parent="1" source="QiIq8ysfyUFUvmuUfaci-253" target="QiIq8ysfyUFUvmuUfaci-254" edge="1"><mxGeometry relative="1" as="geometry"/></mxCell><mxCell id="QiIq8ysfyUFUvmuUfaci-253" value="Rollout" style="rounded=1;whiteSpace=wrap;html=1;sketch=1;curveFitting=1;jiggle=2;fontFamily=Pangolin;fontSource=https%3A%2F%2Ffonts.googleapis.com%2Fcss%3Ffamily%3DPangolin;" parent="1" vertex="1"><mxGeometry x="-338" y="-966" width="120" height="60" as="geometry"/></mxCell><mxCell id="QiIq8ysfyUFUvmuUfaci-254" value="seaf_rollout" style="rounded=1;whiteSpace=wrap;html=1;sketch=1;curveFitting=1;jiggle=2;fontFamily=Pangolin;fontSource=https%3A%2F%2Ffonts.googleapis.com%2Fcss%3Ffamily%3DPangolin;" parent="1" vertex="1"><mxGeometry x="-338" y="-723.5" width="120" height="60" as="geometry"/></mxCell><mxCell id="QiIq8ysfyUFUvmuUfaci-258" value="Т" style="ellipse;shape=cloud;whiteSpace=wrap;html=1;fontFamily=Pangolin;fontSize=18;fontColor=default;sketch=1;curveFitting=1;jiggle=2;fontSource=https%3A%2F%2Ffonts.googleapis.com%2Fcss%3Ffamily%3DPangolin;" parent="1" vertex="1"><mxGeometry x="-1786" y="-582" width="51" height="41" as="geometry"/></mxCell><mxCell id="QiIq8ysfyUFUvmuUfaci-259" value="Т" style="ellipse;shape=cloud;whiteSpace=wrap;html=1;fontFamily=Pangolin;fontSize=18;fontColor=default;sketch=1;curveFitting=1;jiggle=2;fontSource=https%3A%2F%2Ffonts.googleapis.com%2Fcss%3Ffamily%3DPangolin;" parent="1" vertex="1"><mxGeometry x="-1786" y="-502.5" width="51" height="41" as="geometry"/></mxCell><mxCell id="QiIq8ysfyUFUvmuUfaci-260" value="Т" style="ellipse;shape=cloud;whiteSpace=wrap;html=1;fontFamily=Pangolin;fontSize=18;fontColor=default;sketch=1;curveFitting=1;jiggle=2;fontSource=https%3A%2F%2Ffonts.googleapis.com%2Fcss%3Ffamily%3DPangolin;" parent="1" vertex="1"><mxGeometry x="-1792" y="-421.5" width="51" height="41" as="geometry"/></mxCell><mxCell id="QiIq8ysfyUFUvmuUfaci-264" style="edgeStyle=orthogonalEdgeStyle;shape=connector;curved=1;rounded=0;sketch=1;jiggle=2;curveFitting=1;orthogonalLoop=1;jettySize=auto;html=1;exitX=1;exitY=0.5;exitDx=0;exitDy=0;entryX=0;entryY=0.5;entryDx=0;entryDy=0;labelBackgroundColor=default;strokeColor=default;fontFamily=Helvetica;fontSize=11;fontColor=default;endArrow=classic;" parent="1" source="QiIq8ysfyUFUvmuUfaci-267" target="QiIq8ysfyUFUvmuUfaci-141" edge="1"><mxGeometry relative="1" as="geometry"/></mxCell><mxCell id="QiIq8ysfyUFUvmuUfaci-265" style="edgeStyle=orthogonalEdgeStyle;shape=connector;curved=1;rounded=0;sketch=1;jiggle=2;curveFitting=1;orthogonalLoop=1;jettySize=auto;html=1;exitX=1;exitY=0.5;exitDx=0;exitDy=0;entryX=0;entryY=0.5;entryDx=0;entryDy=0;labelBackgroundColor=default;strokeColor=default;fontFamily=Helvetica;fontSize=11;fontColor=default;endArrow=classic;" parent="1" source="QiIq8ysfyUFUvmuUfaci-267" target="QiIq8ysfyUFUvmuUfaci-130" edge="1"><mxGeometry relative="1" as="geometry"/></mxCell><mxCell id="QiIq8ysfyUFUvmuUfaci-266" style="edgeStyle=orthogonalEdgeStyle;shape=connector;curved=1;rounded=0;sketch=1;jiggle=2;curveFitting=1;orthogonalLoop=1;jettySize=auto;html=1;exitX=1;exitY=0.5;exitDx=0;exitDy=0;entryX=0;entryY=0.5;entryDx=0;entryDy=0;labelBackgroundColor=default;strokeColor=default;fontFamily=Helvetica;fontSize=11;fontColor=default;endArrow=classic;" parent="1" source="QiIq8ysfyUFUvmuUfaci-267" target="QiIq8ysfyUFUvmuUfaci-250" edge="1"><mxGeometry relative="1" as="geometry"/></mxCell><mxCell id="QiIq8ysfyUFUvmuUfaci-267" value="1.Группировка ТЭГов для анализа / отчетности&lt;br&gt;2. Гипотеза - ведется как узел справочника ТЭГов с листами, используемыми для разметки задач в JIRA" style="text;html=1;strokeColor=none;fillColor=none;align=center;verticalAlign=middle;whiteSpace=wrap;rounded=0;fontFamily=Pangolin;fontSource=https%3A%2F%2Ffonts.googleapis.com%2Fcss%3Ffamily%3DPangolin;fontStyle=1;fontSize=18;fontColor=#FF0000;" parent="1" vertex="1"><mxGeometry x="-2420" y="-1112" width="418" height="133" as="geometry"/></mxCell><mxCell id="QiIq8ysfyUFUvmuUfaci-268" value="E" style="ellipse;shape=cloud;whiteSpace=wrap;html=1;fontFamily=Pangolin;fontSize=18;fontColor=default;sketch=1;curveFitting=1;jiggle=2;fontSource=https%3A%2F%2Ffonts.googleapis.com%2Fcss%3Ffamily%3DPangolin;" parent="1" vertex="1"><mxGeometry x="-1466" y="-332" width="46.42" height="37" as="geometry"/></mxCell><mxCell id="QiIq8ysfyUFUvmuUfaci-269" value="E" style="ellipse;shape=cloud;whiteSpace=wrap;html=1;fontFamily=Pangolin;fontSize=18;fontColor=default;sketch=1;curveFitting=1;jiggle=2;fontSource=https%3A%2F%2Ffonts.googleapis.com%2Fcss%3Ffamily%3DPangolin;" parent="1" vertex="1"><mxGeometry x="-1455" y="-255" width="46.42" height="37" as="geometry"/></mxCell><mxCell id="QiIq8ysfyUFUvmuUfaci-270" value="E" style="ellipse;shape=cloud;whiteSpace=wrap;html=1;fontFamily=Pangolin;fontSize=18;fontColor=default;sketch=1;curveFitting=1;jiggle=2;fontSource=https%3A%2F%2Ffonts.googleapis.com%2Fcss%3Ffamily%3DPangolin;" parent="1" vertex="1"><mxGeometry x="-1451" y="-180.25" width="46.42" height="37" as="geometry"/></mxCell><mxCell id="QiIq8ysfyUFUvmuUfaci-271" value="E" style="ellipse;shape=cloud;whiteSpace=wrap;html=1;fontFamily=Pangolin;fontSize=18;fontColor=default;sketch=1;curveFitting=1;jiggle=2;fontSource=https%3A%2F%2Ffonts.googleapis.com%2Fcss%3Ffamily%3DPangolin;" parent="1" vertex="1"><mxGeometry x="-1463" y="-102.5" width="46.42" height="37" as="geometry"/></mxCell><mxCell id="QiIq8ysfyUFUvmuUfaci-272" value="Т" style="ellipse;shape=cloud;whiteSpace=wrap;html=1;fontFamily=Pangolin;fontSize=18;fontColor=default;sketch=1;curveFitting=1;jiggle=2;fontSource=https%3A%2F%2Ffonts.googleapis.com%2Fcss%3Ffamily%3DPangolin;" parent="1" vertex="1"><mxGeometry x="-1387" y="-590" width="51" height="41" as="geometry"/></mxCell><mxCell id="QiIq8ysfyUFUvmuUfaci-273" value="Т" style="ellipse;shape=cloud;whiteSpace=wrap;html=1;fontFamily=Pangolin;fontSize=18;fontColor=default;sketch=1;curveFitting=1;jiggle=2;fontSource=https%3A%2F%2Ffonts.googleapis.com%2Fcss%3Ffamily%3DPangolin;" parent="1" vertex="1"><mxGeometry x="-1384" y="-510.5" width="51" height="41" as="geometry"/></mxCell><mxCell id="QiIq8ysfyUFUvmuUfaci-274" value="Т" style="ellipse;shape=cloud;whiteSpace=wrap;html=1;fontFamily=Pangolin;fontSize=18;fontColor=default;sketch=1;curveFitting=1;jiggle=2;fontSource=https%3A%2F%2Ffonts.googleapis.com%2Fcss%3Ffamily%3DPangolin;" parent="1" vertex="1"><mxGeometry x="-1384" y="-419.5" width="51" height="41" as="geometry"/></mxCell><mxCell id="QiIq8ysfyUFUvmuUfaci-275" value="Т" style="ellipse;shape=cloud;whiteSpace=wrap;html=1;fontFamily=Pangolin;fontSize=18;fontColor=default;sketch=1;curveFitting=1;jiggle=2;fontSource=https%3A%2F%2Ffonts.googleapis.com%2Fcss%3Ffamily%3DPangolin;" parent="1" vertex="1"><mxGeometry x="-1158" y="-603.5" width="51" height="41" as="geometry"/></mxCell><mxCell id="QiIq8ysfyUFUvmuUfaci-276" value="Т" style="ellipse;shape=cloud;whiteSpace=wrap;html=1;fontFamily=Pangolin;fontSize=18;fontColor=default;sketch=1;curveFitting=1;jiggle=2;fontSource=https%3A%2F%2Ffonts.googleapis.com%2Fcss%3Ffamily%3DPangolin;" parent="1" vertex="1"><mxGeometry x="-1158" y="-525" width="51" height="41" as="geometry"/></mxCell><mxCell id="QiIq8ysfyUFUvmuUfaci-277" value="Т" style="ellipse;shape=cloud;whiteSpace=wrap;html=1;fontFamily=Pangolin;fontSize=18;fontColor=default;sketch=1;curveFitting=1;jiggle=2;fontSource=https%3A%2F%2Ffonts.googleapis.com%2Fcss%3Ffamily%3DPangolin;" parent="1" vertex="1"><mxGeometry x="-1163" y="-460.5" width="51" height="41" as="geometry"/></mxCell><mxCell id="QiIq8ysfyUFUvmuUfaci-278" value="Т" style="ellipse;shape=cloud;whiteSpace=wrap;html=1;fontFamily=Pangolin;fontSize=18;fontColor=default;sketch=1;curveFitting=1;jiggle=2;fontSource=https%3A%2F%2Ffonts.googleapis.com%2Fcss%3Ffamily%3DPangolin;" parent="1" vertex="1"><mxGeometry x="-1163" y="-402.5" width="51" height="41" as="geometry"/></mxCell><mxCell id="QiIq8ysfyUFUvmuUfaci-279" value="Т" style="ellipse;shape=cloud;whiteSpace=wrap;html=1;fontFamily=Pangolin;fontSize=18;fontColor=default;sketch=1;curveFitting=1;jiggle=2;fontSource=https%3A%2F%2Ffonts.googleapis.com%2Fcss%3Ffamily%3DPangolin;" parent="1" vertex="1"><mxGeometry x="-1166" y="-331.5" width="51" height="41" as="geometry"/></mxCell><mxCell id="QiIq8ysfyUFUvmuUfaci-280" value="seaf_dev_proc" style="rounded=1;whiteSpace=wrap;html=1;sketch=1;curveFitting=1;jiggle=2;fontFamily=Pangolin;fontSource=https%3A%2F%2Ffonts.googleapis.com%2Fcss%3Ffamily%3DPangolin;" parent="1" vertex="1"><mxGeometry x="-1669" y="-529" width="120" height="60" as="geometry"/></mxCell><mxCell id="QiIq8ysfyUFUvmuUfaci-281" value="seaf_dev_tools" style="rounded=1;whiteSpace=wrap;html=1;sketch=1;curveFitting=1;jiggle=2;fontFamily=Pangolin;fontSource=https%3A%2F%2Ffonts.googleapis.com%2Fcss%3Ffamily%3DPangolin;" parent="1" vertex="1"><mxGeometry x="-1675.5" y="-608.5" width="120" height="60" as="geometry"/></mxCell><mxCell id="QiIq8ysfyUFUvmuUfaci-282" value="Т" style="ellipse;shape=cloud;whiteSpace=wrap;html=1;fontFamily=Pangolin;fontSize=18;fontColor=default;sketch=1;curveFitting=1;jiggle=2;fontSource=https%3A%2F%2Ffonts.googleapis.com%2Fcss%3Ffamily%3DPangolin;" parent="1" vertex="1"><mxGeometry x="-1571" y="-493" width="51" height="41" as="geometry"/></mxCell><mxCell id="QiIq8ysfyUFUvmuUfaci-283" value="Т" style="ellipse;shape=cloud;whiteSpace=wrap;html=1;fontFamily=Pangolin;fontSize=18;fontColor=default;sketch=1;curveFitting=1;jiggle=2;fontSource=https%3A%2F%2Ffonts.googleapis.com%2Fcss%3Ffamily%3DPangolin;" parent="1" vertex="1"><mxGeometry x="-1581.5" y="-571" width="51" height="41" as="geometry"/></mxCell><mxCell id="QiIq8ysfyUFUvmuUfaci-284" value="Т" style="ellipse;shape=cloud;whiteSpace=wrap;html=1;fontFamily=Pangolin;fontSize=18;fontColor=default;sketch=1;curveFitting=1;jiggle=2;fontSource=https%3A%2F%2Ffonts.googleapis.com%2Fcss%3Ffamily%3DPangolin;" parent="1" vertex="1"><mxGeometry x="-1158" y="-261.5" width="51" height="41" as="geometry"/></mxCell><mxCell id="QiIq8ysfyUFUvmuUfaci-285" value="Т" style="ellipse;shape=cloud;whiteSpace=wrap;html=1;fontFamily=Pangolin;fontSize=18;fontColor=default;sketch=1;curveFitting=1;jiggle=2;fontSource=https%3A%2F%2Ffonts.googleapis.com%2Fcss%3Ffamily%3DPangolin;" parent="1" vertex="1"><mxGeometry x="-916" y="-608" width="51" height="41" as="geometry"/></mxCell><mxCell id="QiIq8ysfyUFUvmuUfaci-286" value="Т" style="ellipse;shape=cloud;whiteSpace=wrap;html=1;fontFamily=Pangolin;fontSize=18;fontColor=default;sketch=1;curveFitting=1;jiggle=2;fontSource=https%3A%2F%2Ffonts.googleapis.com%2Fcss%3Ffamily%3DPangolin;" parent="1" vertex="1"><mxGeometry x="-916" y="-533.5" width="51" height="41" as="geometry"/></mxCell><mxCell id="QiIq8ysfyUFUvmuUfaci-287" value="Т" style="ellipse;shape=cloud;whiteSpace=wrap;html=1;fontFamily=Pangolin;fontSize=18;fontColor=default;sketch=1;curveFitting=1;jiggle=2;fontSource=https%3A%2F%2Ffonts.googleapis.com%2Fcss%3Ffamily%3DPangolin;" parent="1" vertex="1"><mxGeometry x="-919" y="-462.5" width="51" height="41" as="geometry"/></mxCell><mxCell id="QiIq8ysfyUFUvmuUfaci-288" value="Т" style="ellipse;shape=cloud;whiteSpace=wrap;html=1;fontFamily=Pangolin;fontSize=18;fontColor=default;sketch=1;curveFitting=1;jiggle=2;fontSource=https%3A%2F%2Ffonts.googleapis.com%2Fcss%3Ffamily%3DPangolin;" parent="1" vertex="1"><mxGeometry x="-916" y="-388" width="51" height="41" as="geometry"/></mxCell><mxCell id="QiIq8ysfyUFUvmuUfaci-289" value="Т" style="ellipse;shape=cloud;whiteSpace=wrap;html=1;fontFamily=Pangolin;fontSize=18;fontColor=default;sketch=1;curveFitting=1;jiggle=2;fontSource=https%3A%2F%2Ffonts.googleapis.com%2Fcss%3Ffamily%3DPangolin;" parent="1" vertex="1"><mxGeometry x="-817" y="-692" width="51" height="41" as="geometry"/></mxCell><mxCell id="QiIq8ysfyUFUvmuUfaci-290" value="Т" style="ellipse;shape=cloud;whiteSpace=wrap;html=1;fontFamily=Pangolin;fontSize=18;fontColor=default;sketch=1;curveFitting=1;jiggle=2;fontSource=https%3A%2F%2Ffonts.googleapis.com%2Fcss%3Ffamily%3DPangolin;" parent="1" vertex="1"><mxGeometry x="-520" y="-607" width="51" height="41" as="geometry"/></mxCell><mxCell id="QiIq8ysfyUFUvmuUfaci-291" value="Т" style="ellipse;shape=cloud;whiteSpace=wrap;html=1;fontFamily=Pangolin;fontSize=18;fontColor=default;sketch=1;curveFitting=1;jiggle=2;fontSource=https%3A%2F%2Ffonts.googleapis.com%2Fcss%3Ffamily%3DPangolin;" parent="1" vertex="1"><mxGeometry x="-517" y="-529" width="51" height="41" as="geometry"/></mxCell><mxCell id="QiIq8ysfyUFUvmuUfaci-292" value="Т" style="ellipse;shape=cloud;whiteSpace=wrap;html=1;fontFamily=Pangolin;fontSize=18;fontColor=default;sketch=1;curveFitting=1;jiggle=2;fontSource=https%3A%2F%2Ffonts.googleapis.com%2Fcss%3Ffamily%3DPangolin;" parent="1" vertex="1"><mxGeometry x="-430" y="-688" width="51" height="41" as="geometry"/></mxCell><mxCell id="QiIq8ysfyUFUvmuUfaci-293" value="Т" style="ellipse;shape=cloud;whiteSpace=wrap;html=1;fontFamily=Pangolin;fontSize=18;fontColor=default;sketch=1;curveFitting=1;jiggle=2;fontSource=https%3A%2F%2Ffonts.googleapis.com%2Fcss%3Ffamily%3DPangolin;" parent="1" vertex="1"><mxGeometry x="-241" y="-692" width="51" height="41" as="geometry"/></mxCell><mxCell id="QiIq8ysfyUFUvmuUfaci-294" value="Т" style="ellipse;shape=cloud;whiteSpace=wrap;html=1;fontFamily=Pangolin;fontSize=18;fontColor=default;sketch=1;curveFitting=1;jiggle=2;fontSource=https%3A%2F%2Ffonts.googleapis.com%2Fcss%3Ffamily%3DPangolin;" parent="1" vertex="1"><mxGeometry x="23" y="-701.5" width="51" height="41" as="geometry"/></mxCell><mxCell id="QiIq8ysfyUFUvmuUfaci-295" value="E" style="ellipse;shape=cloud;whiteSpace=wrap;html=1;fontFamily=Pangolin;fontSize=18;fontColor=default;sketch=1;curveFitting=1;jiggle=2;fontSource=https%3A%2F%2Ffonts.googleapis.com%2Fcss%3Ffamily%3DPangolin;" parent="1" vertex="1"><mxGeometry x="234" y="-456.5" width="46.42" height="37" as="geometry"/></mxCell><mxCell id="QiIq8ysfyUFUvmuUfaci-296" value="E" style="ellipse;shape=cloud;whiteSpace=wrap;html=1;fontFamily=Pangolin;fontSize=18;fontColor=default;sketch=1;curveFitting=1;jiggle=2;fontSource=https%3A%2F%2Ffonts.googleapis.com%2Fcss%3Ffamily%3DPangolin;" parent="1" vertex="1"><mxGeometry x="237" y="-384" width="46.42" height="37" as="geometry"/></mxCell><mxCell id="QiIq8ysfyUFUvmuUfaci-297" value="E" style="ellipse;shape=cloud;whiteSpace=wrap;html=1;fontFamily=Pangolin;fontSize=18;fontColor=default;sketch=1;curveFitting=1;jiggle=2;fontSource=https%3A%2F%2Ffonts.googleapis.com%2Fcss%3Ffamily%3DPangolin;" parent="1" vertex="1"><mxGeometry x="255" y="-305.5" width="46.42" height="37" as="geometry"/></mxCell><mxCell id="QiIq8ysfyUFUvmuUfaci-298" value="E" style="ellipse;shape=cloud;whiteSpace=wrap;html=1;fontFamily=Pangolin;fontSize=18;fontColor=default;sketch=1;curveFitting=1;jiggle=2;fontSource=https%3A%2F%2Ffonts.googleapis.com%2Fcss%3Ffamily%3DPangolin;" parent="1" vertex="1"><mxGeometry x="251" y="-231.5" width="46.42" height="37" as="geometry"/></mxCell><mxCell id="QiIq8ysfyUFUvmuUfaci-299" value="?" style="ellipse;shape=cloud;whiteSpace=wrap;html=1;fontFamily=Pangolin;fontSize=18;fontColor=default;sketch=1;curveFitting=1;jiggle=2;fontSource=https%3A%2F%2Ffonts.googleapis.com%2Fcss%3Ffamily%3DPangolin;" parent="1" vertex="1"><mxGeometry x="148" y="-618" width="51" height="41" as="geometry"/></mxCell><mxCell id="QiIq8ysfyUFUvmuUfaci-300" value="?" style="ellipse;shape=cloud;whiteSpace=wrap;html=1;fontFamily=Pangolin;fontSize=18;fontColor=default;sketch=1;curveFitting=1;jiggle=2;fontSource=https%3A%2F%2Ffonts.googleapis.com%2Fcss%3Ffamily%3DPangolin;" parent="1" vertex="1"><mxGeometry x="155" y="-537.5" width="51" height="41" as="geometry"/></mxCell><mxCell id="QiIq8ysfyUFUvmuUfaci-301" value="?" style="ellipse;shape=cloud;whiteSpace=wrap;html=1;fontFamily=Pangolin;fontSize=18;fontColor=default;sketch=1;curveFitting=1;jiggle=2;fontSource=https%3A%2F%2Ffonts.googleapis.com%2Fcss%3Ffamily%3DPangolin;" parent="1" vertex="1"><mxGeometry x="140" y="-146.5" width="51" height="41" as="geometry"/></mxCell><mxCell id="QiIq8ysfyUFUvmuUfaci-302" value="Т" style="ellipse;shape=cloud;whiteSpace=wrap;html=1;fontFamily=Pangolin;fontSize=18;fontColor=default;sketch=1;curveFitting=1;jiggle=2;fontSource=https%3A%2F%2Ffonts.googleapis.com%2Fcss%3Ffamily%3DPangolin;" parent="1" vertex="1"><mxGeometry x="394" y="-690.5" width="51" height="41" as="geometry"/></mxCell><mxCell id="QiIq8ysfyUFUvmuUfaci-303" value="Т" style="ellipse;shape=cloud;whiteSpace=wrap;html=1;fontFamily=Pangolin;fontSize=18;fontColor=default;sketch=1;curveFitting=1;jiggle=2;fontSource=https%3A%2F%2Ffonts.googleapis.com%2Fcss%3Ffamily%3DPangolin;" parent="1" vertex="1"><mxGeometry x="550.5" y="-701.5" width="51" height="41" as="geometry"/></mxCell><mxCell id="QiIq8ysfyUFUvmuUfaci-304" value="E" style="ellipse;shape=cloud;whiteSpace=wrap;html=1;fontFamily=Pangolin;fontSize=18;fontColor=default;sketch=1;curveFitting=1;jiggle=2;fontSource=https%3A%2F%2Ffonts.googleapis.com%2Fcss%3Ffamily%3DPangolin;" parent="1" vertex="1"><mxGeometry x="632.5799999999999" y="-545" width="46.42" height="37" as="geometry"/></mxCell><mxCell id="QiIq8ysfyUFUvmuUfaci-305" value="E" style="ellipse;shape=cloud;whiteSpace=wrap;html=1;fontFamily=Pangolin;fontSize=18;fontColor=default;sketch=1;curveFitting=1;jiggle=2;fontSource=https%3A%2F%2Ffonts.googleapis.com%2Fcss%3Ffamily%3DPangolin;" parent="1" vertex="1"><mxGeometry x="632.5799999999999" y="-625.5" width="46.42" height="37" as="geometry"/></mxCell><mxCell id="QiIq8ysfyUFUvmuUfaci-306" value="E" style="ellipse;shape=cloud;whiteSpace=wrap;html=1;fontFamily=Pangolin;fontSize=18;fontColor=default;sketch=1;curveFitting=1;jiggle=2;fontSource=https%3A%2F%2Ffonts.googleapis.com%2Fcss%3Ffamily%3DPangolin;" parent="1" vertex="1"><mxGeometry x="851" y="-475.5" width="46.42" height="37" as="geometry"/></mxCell><mxCell id="QiIq8ysfyUFUvmuUfaci-307" value="E" style="ellipse;shape=cloud;whiteSpace=wrap;html=1;fontFamily=Pangolin;fontSize=18;fontColor=default;sketch=1;curveFitting=1;jiggle=2;fontSource=https%3A%2F%2Ffonts.googleapis.com%2Fcss%3Ffamily%3DPangolin;" parent="1" vertex="1"><mxGeometry x="853" y="-405" width="46.42" height="37" as="geometry"/></mxCell><mxCell id="QiIq8ysfyUFUvmuUfaci-308" value="Т" style="ellipse;shape=cloud;whiteSpace=wrap;html=1;fontFamily=Pangolin;fontSize=18;fontColor=default;sketch=1;curveFitting=1;jiggle=2;fontSource=https%3A%2F%2Ffonts.googleapis.com%2Fcss%3Ffamily%3DPangolin;" parent="1" vertex="1"><mxGeometry x="746" y="-704" width="51" height="41" as="geometry"/></mxCell><mxCell id="QiIq8ysfyUFUvmuUfaci-309" value="З" style="ellipse;shape=cloud;whiteSpace=wrap;html=1;fontFamily=Pangolin;fontSize=18;fontColor=default;sketch=1;curveFitting=1;jiggle=2;fontSource=https%3A%2F%2Ffonts.googleapis.com%2Fcss%3Ffamily%3DPangolin;" parent="1" vertex="1"><mxGeometry x="852.21" y="-549" width="48" height="37" as="geometry"/></mxCell><mxCell id="QiIq8ysfyUFUvmuUfaci-310" value="Т" style="ellipse;shape=cloud;whiteSpace=wrap;html=1;fontFamily=Pangolin;fontSize=18;fontColor=default;sketch=1;curveFitting=1;jiggle=2;fontSource=https%3A%2F%2Ffonts.googleapis.com%2Fcss%3Ffamily%3DPangolin;" parent="1" vertex="1"><mxGeometry x="931" y="-712.5" width="51" height="41" as="geometry"/></mxCell><mxCell id="QiIq8ysfyUFUvmuUfaci-311" value="E" style="ellipse;shape=cloud;whiteSpace=wrap;html=1;fontFamily=Pangolin;fontSize=18;fontColor=default;sketch=1;curveFitting=1;jiggle=2;fontSource=https%3A%2F%2Ffonts.googleapis.com%2Fcss%3Ffamily%3DPangolin;" parent="1" vertex="1"><mxGeometry x="1016" y="-633" width="46.42" height="37" as="geometry"/></mxCell><mxCell id="QiIq8ysfyUFUvmuUfaci-312" value="E" style="ellipse;shape=cloud;whiteSpace=wrap;html=1;fontFamily=Pangolin;fontSize=18;fontColor=default;sketch=1;curveFitting=1;jiggle=2;fontSource=https%3A%2F%2Ffonts.googleapis.com%2Fcss%3Ffamily%3DPangolin;" parent="1" vertex="1"><mxGeometry x="1018" y="-553.5" width="46.42" height="37" as="geometry"/></mxCell><mxCell id="QiIq8ysfyUFUvmuUfaci-313" value="seaf_run_p2649" style="rounded=1;whiteSpace=wrap;html=1;sketch=1;curveFitting=1;jiggle=2;fontFamily=Pangolin;fontSource=https%3A%2F%2Ffonts.googleapis.com%2Fcss%3Ffamily%3DPangolin;" parent="1" vertex="1"><mxGeometry x="1127" y="-645.25" width="120" height="60" as="geometry"/></mxCell><mxCell id="QiIq8ysfyUFUvmuUfaci-314" value="seaf_run_p2652" style="rounded=1;whiteSpace=wrap;html=1;sketch=1;curveFitting=1;jiggle=2;fontFamily=Pangolin;fontSource=https%3A%2F%2Ffonts.googleapis.com%2Fcss%3Ffamily%3DPangolin;" parent="1" vertex="1"><mxGeometry x="1127" y="-577.25" width="120" height="60" as="geometry"/></mxCell><mxCell id="QiIq8ysfyUFUvmuUfaci-315" value="seaf_run_p2653" style="rounded=1;whiteSpace=wrap;html=1;sketch=1;curveFitting=1;jiggle=2;fontFamily=Pangolin;fontSource=https%3A%2F%2Ffonts.googleapis.com%2Fcss%3Ffamily%3DPangolin;" parent="1" vertex="1"><mxGeometry x="1125" y="-510.25" width="120" height="60" as="geometry"/></mxCell><mxCell id="QiIq8ysfyUFUvmuUfaci-316" value="seaf_run_p2638" style="rounded=1;whiteSpace=wrap;html=1;sketch=1;curveFitting=1;jiggle=2;fontFamily=Pangolin;fontSource=https%3A%2F%2Ffonts.googleapis.com%2Fcss%3Ffamily%3DPangolin;" parent="1" vertex="1"><mxGeometry x="1125" y="-446.25" width="120" height="60" as="geometry"/></mxCell><mxCell id="QiIq8ysfyUFUvmuUfaci-317" value="seaf_run_p4424" style="rounded=1;whiteSpace=wrap;html=1;sketch=1;curveFitting=1;jiggle=2;fontFamily=Pangolin;fontSource=https%3A%2F%2Ffonts.googleapis.com%2Fcss%3Ffamily%3DPangolin;" parent="1" vertex="1"><mxGeometry x="1125" y="-378.25" width="120" height="60" as="geometry"/></mxCell><mxCell id="QiIq8ysfyUFUvmuUfaci-318" value="seaf_run_consulting" style="rounded=1;whiteSpace=wrap;html=1;sketch=1;curveFitting=1;jiggle=2;fontFamily=Pangolin;fontSource=https%3A%2F%2Ffonts.googleapis.com%2Fcss%3Ffamily%3DPangolin;" parent="1" vertex="1"><mxGeometry x="1127" y="-308.75" width="120" height="60" as="geometry"/></mxCell><mxCell id="QiIq8ysfyUFUvmuUfaci-319" value="Т" style="ellipse;shape=cloud;whiteSpace=wrap;html=1;fontFamily=Pangolin;fontSize=18;fontColor=default;sketch=1;curveFitting=1;jiggle=2;fontSource=https%3A%2F%2Ffonts.googleapis.com%2Fcss%3Ffamily%3DPangolin;" parent="1" vertex="1"><mxGeometry x="1222" y="-622" width="51" height="41" as="geometry"/></mxCell><mxCell id="QiIq8ysfyUFUvmuUfaci-320" value="Т" style="ellipse;shape=cloud;whiteSpace=wrap;html=1;fontFamily=Pangolin;fontSize=18;fontColor=default;sketch=1;curveFitting=1;jiggle=2;fontSource=https%3A%2F%2Ffonts.googleapis.com%2Fcss%3Ffamily%3DPangolin;" parent="1" vertex="1"><mxGeometry x="1232" y="-548.5" width="51" height="41" as="geometry"/></mxCell><mxCell id="QiIq8ysfyUFUvmuUfaci-321" value="Т" style="ellipse;shape=cloud;whiteSpace=wrap;html=1;fontFamily=Pangolin;fontSize=18;fontColor=default;sketch=1;curveFitting=1;jiggle=2;fontSource=https%3A%2F%2Ffonts.googleapis.com%2Fcss%3Ffamily%3DPangolin;" parent="1" vertex="1"><mxGeometry x="1229.5" y="-479" width="51" height="41" as="geometry"/></mxCell><mxCell id="QiIq8ysfyUFUvmuUfaci-322" value="Т" style="ellipse;shape=cloud;whiteSpace=wrap;html=1;fontFamily=Pangolin;fontSize=18;fontColor=default;sketch=1;curveFitting=1;jiggle=2;fontSource=https%3A%2F%2Ffonts.googleapis.com%2Fcss%3Ffamily%3DPangolin;" parent="1" vertex="1"><mxGeometry x="1229.5" y="-419.25" width="51" height="41" as="geometry"/></mxCell><mxCell id="QiIq8ysfyUFUvmuUfaci-323" value="Т" style="ellipse;shape=cloud;whiteSpace=wrap;html=1;fontFamily=Pangolin;fontSize=18;fontColor=default;sketch=1;curveFitting=1;jiggle=2;fontSource=https%3A%2F%2Ffonts.googleapis.com%2Fcss%3Ffamily%3DPangolin;" parent="1" vertex="1"><mxGeometry x="1229.5" y="-352.5" width="51" height="41" as="geometry"/></mxCell><mxCell id="QiIq8ysfyUFUvmuUfaci-324" value="Т" style="ellipse;shape=cloud;whiteSpace=wrap;html=1;fontFamily=Pangolin;fontSize=18;fontColor=default;sketch=1;curveFitting=1;jiggle=2;fontSource=https%3A%2F%2Ffonts.googleapis.com%2Fcss%3Ffamily%3DPangolin;" parent="1" vertex="1"><mxGeometry x="1232" y="-278.5" width="51" height="41" as="geometry"/></mxCell><mxCell id="QiIq8ysfyUFUvmuUfaci-325" value="Т" style="ellipse;shape=cloud;whiteSpace=wrap;html=1;fontFamily=Pangolin;fontSize=18;fontColor=default;sketch=1;curveFitting=1;jiggle=2;fontSource=https%3A%2F%2Ffonts.googleapis.com%2Fcss%3Ffamily%3DPangolin;" parent="1" vertex="1"><mxGeometry x="1294" y="-717.5" width="51" height="41" as="geometry"/></mxCell><mxCell id="QiIq8ysfyUFUvmuUfaci-326" value="E" style="ellipse;shape=cloud;whiteSpace=wrap;html=1;fontFamily=Pangolin;fontSize=18;fontColor=default;sketch=1;curveFitting=1;jiggle=2;fontSource=https%3A%2F%2Ffonts.googleapis.com%2Fcss%3Ffamily%3DPangolin;" parent="1" vertex="1"><mxGeometry x="1391" y="-630.5" width="46.42" height="37" as="geometry"/></mxCell><mxCell id="QiIq8ysfyUFUvmuUfaci-333" value="seaf_change_p_research" style="rounded=1;whiteSpace=wrap;html=1;sketch=1;curveFitting=1;jiggle=2;fontFamily=Pangolin;fontSource=https%3A%2F%2Ffonts.googleapis.com%2Fcss%3Ffamily%3DPangolin;" parent="1" vertex="1"><mxGeometry x="-1263" y="-220.5" width="149" height="60" as="geometry"/></mxCell><mxCell id="QiIq8ysfyUFUvmuUfaci-334" value="Т" style="ellipse;shape=cloud;whiteSpace=wrap;html=1;fontFamily=Pangolin;fontSize=18;fontColor=default;sketch=1;curveFitting=1;jiggle=2;fontSource=https%3A%2F%2Ffonts.googleapis.com%2Fcss%3Ffamily%3DPangolin;" parent="1" vertex="1"><mxGeometry x="-1129" y="-189.5" width="51" height="41" as="geometry"/></mxCell><mxCell id="QiIq8ysfyUFUvmuUfaci-335" value="seaf_run_research" style="rounded=1;whiteSpace=wrap;html=1;sketch=1;curveFitting=1;jiggle=2;fontFamily=Pangolin;fontSource=https%3A%2F%2Ffonts.googleapis.com%2Fcss%3Ffamily%3DPangolin;" parent="1" vertex="1"><mxGeometry x="1127" y="-240.25" width="120" height="60" as="geometry"/></mxCell><mxCell id="QiIq8ysfyUFUvmuUfaci-336" value="Т" style="ellipse;shape=cloud;whiteSpace=wrap;html=1;fontFamily=Pangolin;fontSize=18;fontColor=default;sketch=1;curveFitting=1;jiggle=2;fontSource=https%3A%2F%2Ffonts.googleapis.com%2Fcss%3Ffamily%3DPangolin;" parent="1" vertex="1"><mxGeometry x="1239" y="-200" width="51" height="41" as="geometry"/></mxCell><mxCell id="QiIq8ysfyUFUvmuUfaci-337" value="Нам нужен план" style="text;html=1;strokeColor=#9673a6;fillColor=#e1d5e7;align=center;verticalAlign=middle;whiteSpace=wrap;rounded=0;fontFamily=Pangolin;fontSource=https%3A%2F%2Ffonts.googleapis.com%2Fcss%3Ffamily%3DPangolin;fontStyle=1;fontSize=27;" parent="1" vertex="1"><mxGeometry x="-121.49999999999989" y="-1120" width="449" height="141" as="geometry"/></mxCell><mxCell id="QiIq8ysfyUFUvmuUfaci-338" value="Эпик будет создаваться в рамках ченж активкности" style="text;html=1;strokeColor=none;fillColor=none;align=center;verticalAlign=middle;whiteSpace=wrap;rounded=0;fontFamily=Pangolin;fontSource=https%3A%2F%2Ffonts.googleapis.com%2Fcss%3Ffamily%3DPangolin;fontStyle=1;fontSize=18;" parent="1" vertex="1"><mxGeometry x="307" y="-467" width="146" height="99" as="geometry"/></mxCell><mxCell id="QiIq8ysfyUFUvmuUfaci-339" value="seaf_run_comminity" style="rounded=1;whiteSpace=wrap;html=1;sketch=1;curveFitting=1;jiggle=2;fontFamily=Pangolin;fontSource=https%3A%2F%2Ffonts.googleapis.com%2Fcss%3Ffamily%3DPangolin;" parent="1" vertex="1"><mxGeometry x="1123.69" y="-156" width="120" height="60" as="geometry"/></mxCell><mxCell id="QiIq8ysfyUFUvmuUfaci-340" value="Т" style="ellipse;shape=cloud;whiteSpace=wrap;html=1;fontFamily=Pangolin;fontSize=18;fontColor=default;sketch=1;curveFitting=1;jiggle=2;fontSource=https%3A%2F%2Ffonts.googleapis.com%2Fcss%3Ffamily%3DPangolin;" parent="1" vertex="1"><mxGeometry x="1239" y="-119" width="51" height="41" as="geometry"/></mxCell><mxCell id="QiIq8ysfyUFUvmuUfaci-341" value="seaf_change_comminity" style="rounded=1;whiteSpace=wrap;html=1;sketch=1;curveFitting=1;jiggle=2;fontFamily=Pangolin;fontSource=https%3A%2F%2Ffonts.googleapis.com%2Fcss%3Ffamily%3DPangolin;" parent="1" vertex="1"><mxGeometry x="-1263" y="-155.75" width="149" height="60" as="geometry"/></mxCell><mxCell id="QiIq8ysfyUFUvmuUfaci-342" value="Т" style="ellipse;shape=cloud;whiteSpace=wrap;html=1;fontFamily=Pangolin;fontSize=18;fontColor=default;sketch=1;curveFitting=1;jiggle=2;fontSource=https%3A%2F%2Ffonts.googleapis.com%2Fcss%3Ffamily%3DPangolin;" parent="1" vertex="1"><mxGeometry x="-1127" y="-121.25" width="51" height="41" as="geometry"/></mxCell><mxCell id="2" value="&lt;span style=&quot;color: rgb(0, 0, 0); font-family: Pangolin; font-style: normal; font-variant-ligatures: normal; font-variant-caps: normal; font-weight: 400; letter-spacing: normal; orphans: 2; text-align: center; text-indent: 0px; text-transform: none; widows: 2; word-spacing: 0px; -webkit-text-stroke-width: 0px; background-color: rgb(255, 255, 255); text-decoration-thickness: initial; text-decoration-style: initial; text-decoration-color: initial; float: none; display: inline !important;&quot;&gt;&lt;font style=&quot;font-size: 12px;&quot;&gt;seaf_mechanics&lt;/font&gt;&lt;/span&gt;" style="rounded=1;whiteSpace=wrap;html=1;sketch=1;curveFitting=1;jiggle=2;fontFamily=Pangolin;fontSource=https%3A%2F%2Ffonts.googleapis.com%2Fcss%3Ffamily%3DPangolin;" vertex="1" parent="1"><mxGeometry x="-1906" y="-344" width="120" height="61" as="geometry"/></mxCell></root></mxGraphModel>